<svg width="503" height="639" viewBox="0 0 503 639" fill="none" xmlns="http://www.w3.org/2000/svg">
<g clip-path="url(#clip0_216_412)" filter="url(#filter0_d_216_412)">
<path opacity="0.4" d="M32.4428 591.498L6 576.37L45.5652 553.728L71.9957 568.843L32.4428 591.498Z" fill="#D6D8E5"/>
<path d="M32.9875 561.007L11.088 548.367L32.9875 535.728L54.8747 548.367L32.9875 561.007Z" fill="#D6D8E5"/>
<path d="M32.9875 586.286L11.088 573.647V548.367L32.9875 561.007V586.286Z" fill="#B1B6C4"/>
<path d="M54.8871 573.647L32.9875 586.286V561.007L54.8871 548.367V573.647Z" fill="#C4C7D6"/>
<path d="M62.4139 565.748C64.3076 566.275 66.3331 566.031 68.0466 565.067C69.4084 565.067 76.7866 561.96 77.7893 564.609C78.6683 566.924 75.4744 569.078 73.766 569.487C70.0521 570.39 67.2791 572.247 65.7811 572.569C65.2106 572.774 64.5987 572.836 63.9988 572.749C63.399 572.663 62.8293 572.431 62.3396 572.074C61.275 570.96 61.374 567.073 62.4139 565.748Z" fill="#482B5C"/>
<path d="M65.7811 571.864C67.2791 571.542 70.0397 569.685 73.766 568.781C75.1896 568.435 77.6532 566.875 77.9008 565.005C78.235 567.147 75.3506 569.041 73.766 569.425C70.0521 570.329 67.2791 572.186 65.7811 572.507C65.2106 572.712 64.5987 572.774 63.9988 572.687C63.3989 572.601 62.8293 572.369 62.3396 572.012C62.1036 571.762 61.9371 571.455 61.8568 571.121C62.4076 571.542 63.0494 571.829 63.7308 571.958C64.4122 572.087 65.1144 572.055 65.7811 571.864Z" fill="#3B3143"/>
<path d="M49.1182 558.605C51.0119 559.132 53.0374 558.887 54.7509 557.924C56.1127 557.924 63.4166 554.817 64.4813 557.466C65.3602 559.781 62.1663 561.935 60.4703 562.344C56.7564 563.247 53.9834 565.104 52.4854 565.426C51.9149 565.631 51.303 565.693 50.7031 565.606C50.1032 565.52 49.5336 565.288 49.0439 564.931C47.9792 563.879 48.0907 559.992 49.1182 558.605Z" fill="#482B5C"/>
<path d="M52.4854 564.782C53.9834 564.461 56.744 562.604 60.4703 561.7C61.8939 561.353 64.3575 559.793 64.6051 557.924C64.9393 560.066 62.0549 561.96 60.4703 562.344C56.7564 563.247 53.9834 565.104 52.4854 565.426C51.9149 565.631 51.303 565.693 50.7031 565.606C50.1032 565.52 49.5336 565.288 49.0439 564.931C48.8107 564.684 48.6445 564.381 48.5611 564.052C49.1138 564.47 49.7561 564.753 50.4372 564.88C51.1182 565.006 51.8194 564.973 52.4854 564.782Z" fill="#3B3143"/>
<path d="M28.4071 549.432C34.1636 551.908 39.5487 552.353 44.0178 549.977L48.5982 547.327C48.8706 553.245 49.1305 558.927 49.1305 558.927C49.1305 558.927 52.6463 561.589 55.3203 559.212C55.3203 559.212 55.8898 550.917 56.4716 542.747L61.2749 539.974C61.1592 540.41 61.0968 540.859 61.0892 541.311C61.0892 542.858 62.2034 565.921 62.2034 565.921C62.2034 565.921 65.744 568.026 68.4799 565.661C68.4799 565.661 70.3244 538.934 70.7453 534.712C71.2158 529.909 65.8925 527.545 62.5129 528.77L57.363 530.689L57.6106 527.718C58.0934 522.915 52.7578 520.55 49.3905 521.776C46.3204 522.902 25.5722 530.677 25.5722 530.677C25.7013 532.674 25.9451 534.662 26.3026 536.631L18.1073 535.938C17.674 543.601 22.663 546.906 28.4071 549.432ZM42.7179 536.149L48.2021 532.992C48.1107 533.378 48.0527 533.772 48.0288 534.168L42.7179 536.149Z" fill="#E23E57"/>
<path d="M13.6754 512.516C13.6754 512.516 14.3439 522.704 15.6809 524.177C17.0179 525.651 21.5488 526.653 21.5488 526.653L25.0275 532.323C25.0275 532.323 21.8459 514.15 21.1526 513.754C20.4594 513.358 13.6754 512.516 13.6754 512.516Z" fill="#FFCEA9"/>
<path d="M20.3727 501.188C19.5291 500.795 18.5709 500.722 17.6775 500.984C16.7841 501.246 16.017 501.825 15.5199 502.612C14.282 504.729 12.9078 512.021 12.784 513.259C13.2986 513.953 13.9802 514.507 14.7657 514.869C15.5513 515.23 16.4153 515.387 17.2778 515.326L20.3727 501.188Z" fill="#EDEDED"/>
<path d="M21.5983 501.374C23.3562 501.461 24.6684 501.906 24.8913 501.374C25.08 500.467 25.2123 499.549 25.2874 498.626C25.0894 498.106 24.916 497.561 24.916 497.561C22.7001 496.2 22.0068 493.847 21.7097 491.025C21.2145 486.259 23.7895 482.099 28.5433 481.604C33.0247 481.133 36.3177 484.278 37.209 488.598C37.6794 490.728 38.6203 494.788 37.3452 498.267C36.6395 500.223 35.7234 501.783 34.8692 502.08C33.9824 502.061 33.0975 501.987 32.22 501.857C32.22 501.857 31.9848 503.182 31.8239 504.023C31.6629 504.865 31.7124 505.323 33.4084 506.363C35.1045 507.403 30.8583 509.545 28.0852 509.334C25.3122 509.124 22.1925 507.453 21.3383 505.62C20.3108 503.615 20.3851 501.263 21.5983 501.374Z" fill="#FFCEA9"/>
<path d="M66.2392 532.509C66.2382 532.76 66.1714 533.006 66.0454 533.224C65.9194 533.441 65.7386 533.621 65.5212 533.747L52.0893 541.497C51.8714 541.624 51.6236 541.691 51.3713 541.691C51.1189 541.691 50.8711 541.624 50.6532 541.497L31.8362 530.627C31.6171 530.504 31.4349 530.324 31.3087 530.106C31.1824 529.888 31.1167 529.641 31.1182 529.389V529.29L66.2392 532.509Z" fill="#E5E5E5"/>
<path d="M65.5212 533.747L52.0893 541.497C51.873 541.628 51.6243 541.697 51.3713 541.695V532.509H66.2268C66.2271 532.759 66.1621 533.004 66.0384 533.222C65.9146 533.439 65.7363 533.62 65.5212 533.747Z" fill="#E5E5E5"/>
<path d="M51.8788 540.791C51.7272 540.881 51.554 540.929 51.3774 540.929C51.2009 540.929 51.0276 540.881 50.8761 540.791L31.3039 529.501C31.0563 529.352 31.0563 529.117 31.3039 528.981L45.7138 520.649L66.2392 532.509L51.8788 540.791Z" fill="#F4F4F4"/>
<path d="M39.3383 532.509L39.4373 532.558L45.7138 536.186L49.1553 534.192L49.2543 534.143L42.8789 530.466L39.3383 532.509Z" fill="#BFBFBF"/>
<path d="M39.4372 532.558L45.7137 536.185L49.1552 534.192L42.8788 530.578L39.4372 532.558Z" fill="#E5E5E5"/>
<path d="M60.9159 533.091L61.8197 533.611C61.8633 533.634 61.9123 533.647 61.962 533.647C62.0118 533.647 62.0607 533.634 62.1044 533.611L62.971 533.115C63.0576 533.115 63.07 532.992 62.971 532.955L62.0673 532.422C62.0227 532.401 61.9741 532.39 61.9249 532.39C61.8757 532.39 61.8271 532.401 61.7825 532.422L60.9159 532.93C60.854 532.979 60.8417 533.054 60.9159 533.091Z" fill="#3A2C6D"/>
<path d="M59.6408 532.323L60.5445 532.843C60.5882 532.867 60.6372 532.879 60.6869 532.879C60.7367 532.879 60.7856 532.867 60.8293 532.843L61.6959 532.348C61.7825 532.348 61.7825 532.224 61.6959 532.187L60.7921 531.667C60.7485 531.643 60.6995 531.631 60.6498 531.631C60.6 531.631 60.5511 531.643 60.5074 531.667L59.6408 532.162C59.5789 532.236 59.5665 532.323 59.6408 532.323Z" fill="#3A2C6D"/>
<path d="M58.3534 531.618L59.2571 532.137C59.3037 532.159 59.3544 532.17 59.4056 532.17C59.4569 532.17 59.5075 532.159 59.5542 532.137L60.4084 531.642C60.495 531.642 60.5074 531.519 60.4084 531.469L59.5047 530.949C59.461 530.925 59.412 530.913 59.3623 530.913C59.3125 530.913 59.2636 530.925 59.2199 530.949L58.3534 531.444C58.2915 531.494 58.2791 531.568 58.3534 531.618Z" fill="#3A2C6D"/>
<path d="M57.0782 530.875L57.982 531.395C58.0265 531.416 58.0751 531.427 58.1243 531.427C58.1736 531.427 58.2222 531.416 58.2667 531.395L59.1333 530.9C59.2199 530.9 59.2323 530.776 59.1333 530.726L58.2296 530.206C58.1829 530.185 58.1323 530.174 58.081 530.174C58.0298 530.174 57.9791 530.185 57.9324 530.206L57.0782 530.702C57.0163 530.751 57.004 530.825 57.0782 530.875Z" fill="#3A2C6D"/>
<path d="M55.7908 530.132L56.7069 530.652C56.7505 530.676 56.7995 530.688 56.8492 530.688C56.899 530.688 56.9479 530.676 56.9916 530.652L57.8458 530.157C57.9325 530.157 57.9448 530.033 57.8458 529.996L56.9421 529.463C56.8976 529.443 56.8489 529.432 56.7997 529.432C56.7505 529.432 56.7019 529.443 56.6573 529.463L55.7908 529.971C55.7289 530.021 55.7165 530.095 55.7908 530.132Z" fill="#3A2C6D"/>
<path d="M54.5157 529.389L55.4194 529.921C55.4639 529.942 55.5125 529.953 55.5618 529.953C55.611 529.953 55.6596 529.942 55.7041 529.921L56.5707 529.414C56.6573 529.414 56.6697 529.29 56.5707 529.253L55.667 528.733C55.6211 528.709 55.5701 528.697 55.5184 528.697C55.4667 528.697 55.4158 528.709 55.3699 528.733L54.5157 529.228C54.4538 529.278 54.4414 529.352 54.5157 529.389Z" fill="#3A2C6D"/>
<path d="M53.2406 528.609L54.1443 529.129C54.1888 529.15 54.2374 529.161 54.2867 529.161C54.3359 529.161 54.3845 529.15 54.429 529.129L55.2956 528.634C55.3823 528.634 55.3823 528.51 55.2956 528.461L54.3919 527.941C54.3474 527.92 54.2987 527.909 54.2495 527.909C54.2003 527.909 54.1517 527.92 54.1072 527.941L53.2406 528.436C53.1663 528.535 53.1663 528.609 53.2406 528.609Z" fill="#3A2C6D"/>
<path d="M51.9531 527.916L52.8568 528.436C52.9005 528.46 52.9494 528.472 52.9992 528.472C53.0489 528.472 53.0979 528.46 53.1415 528.436L54.0081 527.941C54.0948 527.941 54.1072 527.817 54.0081 527.78L53.1044 527.248C53.0599 527.227 53.0113 527.216 52.962 527.216C52.9128 527.216 52.8642 527.227 52.8197 527.248L51.9531 527.755C51.8912 527.805 51.8788 527.879 51.9531 527.916Z" fill="#3A2C6D"/>
<path d="M50.678 527.173L51.5817 527.693C51.6254 527.717 51.6743 527.73 51.7241 527.73C51.7738 527.73 51.8228 527.717 51.8664 527.693L52.733 527.198C52.8197 527.198 52.8197 527.074 52.733 527.037L51.8045 526.505C51.7609 526.481 51.7119 526.468 51.6622 526.468C51.6124 526.468 51.5635 526.481 51.5198 526.505L50.6532 527C50.5666 527.062 50.5666 527.136 50.678 527.173Z" fill="#3A2C6D"/>
<path d="M49.3905 526.443L50.2942 526.963C50.3409 526.984 50.3915 526.995 50.4428 526.995C50.494 526.995 50.5447 526.984 50.5913 526.963L51.4455 526.468C51.5322 526.468 51.5446 526.344 51.4455 526.294L50.5666 525.762C50.5229 525.738 50.474 525.726 50.4242 525.726C50.3745 525.726 50.3255 525.738 50.2819 525.762L49.4153 526.257C49.3286 526.319 49.3286 526.393 49.3905 526.443Z" fill="#3A2C6D"/>
<path d="M48.0907 525.7L48.9944 526.22C49.0389 526.241 49.0875 526.252 49.1367 526.252C49.186 526.252 49.2346 526.241 49.2791 526.22L50.1457 525.725C50.2323 525.725 50.2447 525.601 50.1457 525.551L49.3286 525.019C49.282 524.998 49.2313 524.987 49.1801 524.987C49.1288 524.987 49.0782 524.998 49.0315 525.019L48.1773 525.514C48.0907 525.576 48.0907 525.65 48.0907 525.7Z" fill="#3A2C6D"/>
<path d="M46.8527 524.957L47.7688 525.477C47.8125 525.501 47.8614 525.514 47.9112 525.514C47.9609 525.514 48.0099 525.501 48.0535 525.477L48.9201 524.982C48.9944 524.982 49.0068 524.858 48.9201 524.821L48.0164 524.289C47.9719 524.268 47.9232 524.257 47.874 524.257C47.8248 524.257 47.7762 524.268 47.7317 524.289L46.8651 524.796C46.7661 524.895 46.7661 524.895 46.8527 524.957Z" fill="#3A2C6D"/>
<path d="M45.6147 524.215L46.5185 524.747C46.563 524.768 46.6116 524.779 46.6608 524.779C46.71 524.779 46.7587 524.768 46.8032 524.747L47.6698 524.239C47.7564 524.239 47.7688 524.116 47.6698 524.078L46.7661 523.558C46.7202 523.535 46.6692 523.522 46.6175 523.522C46.5658 523.522 46.5148 523.535 46.4689 523.558L45.6147 524.054C45.491 524.103 45.4786 524.177 45.6147 524.215Z" fill="#3A2C6D"/>
<path d="M43.6588 523.125L45.1815 524.004C45.226 524.025 45.2746 524.036 45.3238 524.036C45.373 524.036 45.4217 524.025 45.4662 524.004L46.3328 523.509C46.4194 523.509 46.4194 523.385 46.3328 523.336L44.8225 522.42C44.7779 522.399 44.7293 522.388 44.6801 522.388C44.6309 522.388 44.5823 522.399 44.5377 522.42L43.6711 522.927C43.6581 522.926 43.6451 522.928 43.6328 522.932C43.6204 522.936 43.6091 522.943 43.5993 522.952C43.5895 522.96 43.5816 522.971 43.5758 522.983C43.5701 522.994 43.5667 523.007 43.5659 523.02C43.5651 523.033 43.5669 523.046 43.5711 523.058C43.5753 523.071 43.5819 523.082 43.5906 523.092C43.5992 523.102 43.6096 523.11 43.6213 523.115C43.633 523.121 43.6458 523.124 43.6588 523.125Z" fill="#3A2C6D"/>
<path d="M57.7715 532.707L58.6876 533.227C58.7313 533.251 58.7802 533.263 58.83 533.263C58.8797 533.263 58.9287 533.251 58.9723 533.227L59.8389 532.732C59.9132 532.732 59.9256 532.608 59.8389 532.571L58.9352 532.051C58.8915 532.027 58.8426 532.015 58.7928 532.015C58.7431 532.015 58.6941 532.027 58.6505 532.051L57.7839 532.546C57.7096 532.596 57.7096 532.67 57.7715 532.707Z" fill="#3A2C6D"/>
<path d="M56.4964 531.964L57.4001 532.497C57.4447 532.518 57.4933 532.528 57.5425 532.528C57.5917 532.528 57.6403 532.518 57.6849 532.497L58.5514 531.989C58.6381 531.989 58.6505 531.865 58.5514 531.828L57.6477 531.308C57.6018 531.284 57.5509 531.272 57.4992 531.272C57.4474 531.272 57.3965 531.284 57.3506 531.308L56.4964 531.803C56.4345 531.853 56.4221 531.927 56.4964 531.964Z" fill="#3A2C6D"/>
<path d="M55.209 531.234L56.1127 531.754C56.1593 531.775 56.21 531.786 56.2612 531.786C56.3125 531.786 56.3631 531.775 56.4098 531.754L57.264 531.259C57.3506 531.259 57.363 531.135 57.264 531.085L56.3603 530.565C56.3157 530.544 56.2671 530.533 56.2179 530.533C56.1687 530.533 56.1201 530.544 56.0755 530.565L55.209 531.06C55.1471 531.085 55.1347 531.184 55.209 531.234Z" fill="#3A2C6D"/>
<path d="M53.9338 530.491L54.8376 531.011C54.8821 531.032 54.9307 531.043 54.9799 531.043C55.0291 531.043 55.0778 531.032 55.1223 531.011L55.9889 530.516C56.0755 530.516 56.0755 530.392 55.9889 530.342L55.0852 529.823C55.0406 529.802 54.992 529.791 54.9428 529.791C54.8936 529.791 54.8449 529.802 54.8004 529.823L53.9338 530.318C53.8596 530.367 53.8596 530.442 53.9338 530.491Z" fill="#3A2C6D"/>
<path d="M52.6588 529.748L53.5625 530.281C53.607 530.301 53.6556 530.312 53.7048 530.312C53.754 530.312 53.8027 530.301 53.8472 530.281L54.7138 529.773C54.8004 529.773 54.8128 529.649 54.7138 529.612L53.8101 529.092C53.7642 529.068 53.7132 529.056 53.6615 529.056C53.6098 529.056 53.5588 529.068 53.5129 529.092L52.6588 529.587C52.5969 529.637 52.5845 529.711 52.6588 529.748Z" fill="#3A2C6D"/>
<path d="M51.3713 529.018L52.275 529.538C52.3216 529.559 52.3723 529.57 52.4235 529.57C52.4748 529.57 52.5254 529.559 52.5721 529.538L53.4263 529.043C53.5129 529.043 53.5253 528.919 53.4263 528.869L52.5226 528.349C52.478 528.328 52.4294 528.317 52.3802 528.317C52.331 528.317 52.2824 528.328 52.2378 528.349L51.3713 528.845C51.3094 528.894 51.297 528.968 51.3713 529.018Z" fill="#3A2C6D"/>
<path d="M50.0962 528.275L50.9999 528.795C51.0444 528.816 51.093 528.827 51.1422 528.827C51.1915 528.827 51.2401 528.816 51.2846 528.795L52.1512 528.3C52.2379 528.3 52.2379 528.176 52.1512 528.127L51.2475 527.607C51.2029 527.586 51.1543 527.575 51.1051 527.575C51.0559 527.575 51.0073 527.586 50.9627 527.607L50.0962 528.102C50.0219 528.151 50.0219 528.226 50.0962 528.275Z" fill="#3A2C6D"/>
<path d="M48.8087 527.532L49.7124 528.052C49.7561 528.076 49.805 528.089 49.8548 528.089C49.9045 528.089 49.9535 528.076 49.9971 528.052L50.8637 527.557C50.9504 527.557 50.9627 527.433 50.8637 527.396L49.96 526.864C49.9133 526.843 49.8627 526.832 49.8114 526.832C49.7602 526.832 49.7095 526.843 49.6629 526.864L48.8087 527.371C48.7468 527.371 48.7344 527.495 48.8087 527.532Z" fill="#3A2C6D"/>
<path d="M47.5212 526.789L48.4373 527.309C48.481 527.333 48.5299 527.346 48.5797 527.346C48.6294 527.346 48.6784 527.333 48.722 527.309L49.5886 526.814C49.6629 526.814 49.6753 526.69 49.5886 526.653L48.6849 526.133C48.6412 526.11 48.5923 526.097 48.5425 526.097C48.4928 526.097 48.4438 526.11 48.4002 526.133L47.5336 526.629C47.4593 526.678 47.4593 526.752 47.5212 526.789Z" fill="#3A2C6D"/>
<path d="M46.2461 526.047L47.1498 526.579C47.1943 526.6 47.243 526.611 47.2922 526.611C47.3414 526.611 47.39 526.6 47.4345 526.579L48.3011 526.072C48.3878 526.072 48.4001 525.948 48.3011 525.911L47.3974 525.391C47.3515 525.367 47.3006 525.354 47.2488 525.354C47.1971 525.354 47.1462 525.367 47.1003 525.391L46.2461 525.886C46.1842 525.935 46.1718 526.01 46.2461 526.047Z" fill="#3A2C6D"/>
<path d="M44.9586 525.316L45.8623 525.836C45.909 525.858 45.9596 525.868 46.0109 525.868C46.0621 525.868 46.1128 525.858 46.1595 525.836L47.0136 525.341C47.1003 525.341 47.1127 525.217 47.0136 525.168L46.1099 524.648C46.0654 524.627 46.0168 524.616 45.9676 524.616C45.9183 524.616 45.8697 524.627 45.8252 524.648L44.9586 525.143C44.8967 525.193 44.8843 525.267 44.9586 525.316Z" fill="#3A2C6D"/>
<path d="M43.6835 524.574L44.5872 525.094C44.6318 525.114 44.6804 525.125 44.7296 525.125C44.7788 525.125 44.8274 525.114 44.872 525.094L45.7385 524.598C45.8252 524.598 45.8252 524.475 45.7385 524.425L44.8348 523.905C44.7903 523.884 44.7417 523.873 44.6925 523.873C44.6432 523.873 44.5946 523.884 44.5501 523.905L43.6835 524.4C43.6092 524.45 43.6092 524.524 43.6835 524.574Z" fill="#3A2C6D"/>
<path d="M59.059 533.45L60.5817 534.329C60.6262 534.35 60.6748 534.36 60.7241 534.36C60.7733 534.36 60.8219 534.35 60.8664 534.329L61.733 533.834C61.8197 533.834 61.832 533.71 61.733 533.66L60.2103 532.781C60.1637 532.76 60.113 532.749 60.0618 532.749C60.0105 532.749 59.9599 532.76 59.9132 532.781L59.059 533.289C58.9971 533.338 58.9847 533.413 59.059 533.45Z" fill="#3A2C6D"/>
<path d="M43.5721 523.162L44.4758 523.682C44.5501 523.682 44.5501 523.794 44.4758 523.843L43.5597 524.363C43.5207 524.387 43.4757 524.4 43.4297 524.4C43.3838 524.4 43.3388 524.387 43.2998 524.363H43.2255C43.1869 524.344 43.1446 524.335 43.1017 524.335C43.0588 524.335 43.0165 524.344 42.9779 524.363L42.0123 524.92C41.9692 524.939 41.9229 524.948 41.8761 524.948C41.8293 524.948 41.783 524.939 41.7399 524.92L41.1705 524.586C41.0962 524.586 41.0962 524.475 41.1705 524.425L42.0742 523.905L42.2599 523.806L42.396 523.719L42.5322 523.645L43.2998 523.199C43.3378 523.17 43.383 523.151 43.4309 523.144C43.4788 523.137 43.5275 523.144 43.5721 523.162Z" fill="#3A2C6D"/>
<path d="M55.9517 535.95L56.8554 536.47C56.8991 536.494 56.948 536.507 56.9978 536.507C57.0475 536.507 57.0965 536.494 57.1402 536.47L58.0067 535.975C58.0934 535.975 58.0934 535.851 58.0067 535.814L57.103 535.294C57.0594 535.271 57.0104 535.258 56.9607 535.258C56.9109 535.258 56.862 535.271 56.8183 535.294L55.9517 535.79C55.8898 535.839 55.8774 535.913 55.9517 535.95Z" fill="#3A2C6D"/>
<path d="M54.6766 535.22L55.5803 535.74C55.6249 535.761 55.6735 535.772 55.7227 535.772C55.7719 535.772 55.8205 535.761 55.8651 535.74L56.7316 535.245C56.8183 535.245 56.8183 535.121 56.7316 535.072L55.8279 534.552C55.7834 534.531 55.7348 534.52 55.6856 534.52C55.6363 534.52 55.5877 534.531 55.5432 534.552L54.6766 535.047C54.6023 535.096 54.6023 535.171 54.6766 535.22Z" fill="#3A2C6D"/>
<path d="M53.3891 534.477L54.3052 534.997C54.3489 535.021 54.3978 535.034 54.4476 535.034C54.4973 535.034 54.5463 535.021 54.59 534.997L55.4565 534.502C55.5308 534.502 55.5432 534.378 55.4565 534.341L54.5528 533.821C54.5092 533.797 54.4602 533.785 54.4105 533.785C54.3607 533.785 54.3118 533.797 54.2681 533.821L53.4015 534.329C53.3272 534.366 53.3272 534.44 53.3891 534.477Z" fill="#3A2C6D"/>
<path d="M42.5198 528.201L43.4236 528.721C43.4694 528.745 43.5204 528.757 43.5721 528.757C43.6238 528.757 43.6748 528.745 43.7207 528.721L44.5749 528.226C44.6615 528.226 44.6739 528.102 44.5749 528.065L43.6712 527.532C43.6266 527.511 43.578 527.5 43.5288 527.5C43.4796 527.5 43.431 527.511 43.3864 527.532L42.5198 528.04C42.4579 528.089 42.4456 528.164 42.5198 528.201Z" fill="#3A2C6D"/>
<path d="M41.2447 527.47L42.1485 527.99C42.193 528.011 42.2416 528.022 42.2908 528.022C42.34 528.022 42.3887 528.011 42.4332 527.99L43.2998 527.483C43.3864 527.483 43.3988 527.371 43.2998 527.322L42.3961 526.802C42.3502 526.778 42.2992 526.766 42.2475 526.766C42.1958 526.766 42.1448 526.778 42.0989 526.802L41.2447 527.297C41.1828 527.371 41.1705 527.371 41.2447 527.47Z" fill="#3A2C6D"/>
<path d="M39.9696 526.728L40.8734 527.247C40.917 527.271 40.966 527.284 41.0157 527.284C41.0655 527.284 41.1144 527.271 41.1581 527.247L42.0247 526.752C42.1113 526.752 42.1237 526.629 42.0247 526.591L41.121 526.059C41.0743 526.038 41.0236 526.027 40.9724 526.027C40.9211 526.027 40.8705 526.038 40.8238 526.059L39.9696 526.567C39.9077 526.616 39.8954 526.69 39.9696 526.728Z" fill="#3A2C6D"/>
<path d="M38.6945 525.985L39.5983 526.517C39.6428 526.538 39.6914 526.549 39.7406 526.549C39.7898 526.549 39.8385 526.538 39.883 526.517L40.7496 526.01C40.8362 526.01 40.8362 525.886 40.7496 525.849L39.8335 525.329C39.7898 525.305 39.7409 525.292 39.6911 525.292C39.6414 525.292 39.5924 525.305 39.5487 525.329L38.6822 525.824C38.6326 525.873 38.6203 525.948 38.6945 525.985Z" fill="#3A2C6D"/>
<path d="M51.8046 533.561L53.0425 534.279C53.0892 534.3 53.1398 534.311 53.1911 534.311C53.2423 534.311 53.293 534.3 53.3396 534.279L54.1938 533.784C54.2805 533.784 54.2928 533.66 54.1938 533.611L52.9559 532.905C52.9122 532.881 52.8632 532.869 52.8135 532.869C52.7637 532.869 52.7148 532.881 52.6711 532.905L51.8046 533.4C51.7303 533.437 51.7179 533.561 51.8046 533.561Z" fill="#3A2C6D"/>
<path d="M43.7949 528.944L45.0329 529.649C45.0766 529.673 45.1255 529.686 45.1753 529.686C45.225 529.686 45.274 529.673 45.3176 529.649L46.1842 529.154C46.2709 529.154 46.2832 529.03 46.1842 528.981L44.9462 528.275C44.9017 528.254 44.8531 528.243 44.8039 528.243C44.7547 528.243 44.7061 528.254 44.6615 528.275L43.7949 528.77C43.733 528.82 43.7207 528.894 43.7949 528.944Z" fill="#3A2C6D"/>
<path d="M45.4043 529.847L51.4208 533.326C51.4653 533.347 51.5139 533.358 51.5631 533.358C51.6124 533.358 51.661 533.347 51.7055 533.326L52.5721 532.831C52.6587 532.831 52.6587 532.707 52.5721 532.657L46.568 529.191C46.5221 529.167 46.4712 529.155 46.4194 529.155C46.3677 529.155 46.3168 529.167 46.2709 529.191L45.4167 529.686C45.3424 529.748 45.33 529.847 45.4043 529.847Z" fill="#3A2C6D"/>
<path d="M56.1869 533.227L57.0906 533.747C57.1343 533.771 57.1833 533.783 57.233 533.783C57.2828 533.783 57.3317 533.771 57.3754 533.747L58.242 533.252C58.3286 533.252 58.341 533.128 58.242 533.078L57.3382 532.558C57.2916 532.537 57.2409 532.526 57.1897 532.526C57.1384 532.526 57.0878 532.537 57.0411 532.558L56.1869 533.054C56.125 533.103 56.1127 533.177 56.1869 533.227Z" fill="#3A2C6D"/>
<path d="M54.9118 532.484L55.8155 533.004C55.8592 533.028 55.9082 533.04 55.9579 533.04C56.0077 533.04 56.0566 533.028 56.1003 533.004L56.9668 532.509C57.0535 532.509 57.0535 532.385 56.9668 532.348L56.0631 531.828C56.0195 531.804 55.9705 531.792 55.9208 531.792C55.871 531.792 55.8221 531.804 55.7784 531.828L54.9118 532.323C54.8499 532.323 54.8376 532.447 54.9118 532.484Z" fill="#3A2C6D"/>
<path d="M53.6243 531.754L54.5404 532.274C54.585 532.295 54.6336 532.306 54.6828 532.306C54.732 532.306 54.7806 532.295 54.8252 532.274L55.6917 531.779C55.766 531.779 55.7784 531.655 55.6917 531.605L54.788 531.085C54.7435 531.064 54.6949 531.053 54.6457 531.053C54.5964 531.053 54.5478 531.064 54.5033 531.085L53.6367 531.58C53.5624 531.63 53.5624 531.704 53.6243 531.754Z" fill="#3A2C6D"/>
<path d="M52.3492 531.011L53.253 531.531C53.2966 531.555 53.3456 531.567 53.3953 531.567C53.4451 531.567 53.494 531.555 53.5377 531.531L54.4043 531.036C54.4909 531.036 54.5033 530.912 54.4043 530.862L53.5005 530.342C53.456 530.321 53.4074 530.311 53.3582 530.311C53.309 530.311 53.2603 530.321 53.2158 530.342L52.3492 530.85C52.2873 530.9 52.275 530.974 52.3492 531.011Z" fill="#3A2C6D"/>
<path d="M51.0742 530.268L51.9779 530.788C52.0215 530.812 52.0705 530.824 52.1202 530.824C52.17 530.824 52.2189 530.812 52.2626 530.788L53.1292 530.281C53.2158 530.281 53.2282 530.157 53.1292 530.12L52.2255 529.6C52.1796 529.576 52.1286 529.563 52.0769 529.563C52.0252 529.563 51.9742 529.576 51.9284 529.6L51.0742 530.095C51.0123 530.157 50.9999 530.231 51.0742 530.268Z" fill="#3A2C6D"/>
<path d="M49.7991 529.538L50.7028 530.058C50.7473 530.079 50.7959 530.09 50.8451 530.09C50.8944 530.09 50.943 530.079 50.9875 530.058L51.8541 529.563C51.9284 529.563 51.9407 529.439 51.8541 529.389L50.9504 528.869C50.9058 528.848 50.8572 528.837 50.808 528.837C50.7588 528.837 50.7102 528.848 50.6656 528.869L49.7991 529.364C49.7248 529.414 49.7248 529.488 49.7991 529.538Z" fill="#3A2C6D"/>
<path d="M48.5116 528.795L49.4153 529.315C49.4612 529.339 49.5121 529.351 49.5638 529.351C49.6156 529.351 49.6665 529.339 49.7124 529.315L50.5666 528.82C50.6533 528.82 50.6656 528.696 50.5666 528.659L49.6629 528.126C49.6183 528.106 49.5697 528.095 49.5205 528.095C49.4713 528.095 49.4227 528.106 49.3781 528.126L48.5116 528.634C48.4497 528.684 48.4373 528.758 48.5116 528.795Z" fill="#3A2C6D"/>
<path d="M47.2365 528.052L48.0907 528.609C48.1352 528.63 48.1838 528.641 48.233 528.641C48.2823 528.641 48.3309 528.63 48.3754 528.609L49.242 528.102C49.3286 528.102 49.341 527.978 49.242 527.941L48.3383 527.421C48.2924 527.397 48.2414 527.385 48.1897 527.385C48.138 527.385 48.087 527.397 48.0411 527.421L47.187 527.916C47.1746 527.941 47.1622 528.015 47.2365 528.052Z" fill="#3A2C6D"/>
<path d="M45.9614 527.371L46.8651 527.891C46.9096 527.912 46.9582 527.923 47.0075 527.923C47.0567 527.923 47.1053 527.912 47.1498 527.891L48.0164 527.396C48.103 527.396 48.103 527.272 48.0164 527.223L47.1127 526.703C47.0681 526.682 47.0195 526.671 46.9703 526.671C46.9211 526.671 46.8725 526.682 46.828 526.703L45.9614 527.198C45.8871 527.198 45.8871 527.272 45.9614 527.371Z" fill="#3A2C6D"/>
<path d="M44.6739 526.579L45.5776 527.099C45.6235 527.123 45.6744 527.135 45.7262 527.135C45.7779 527.135 45.8288 527.123 45.8747 527.099L46.7289 526.604C46.8156 526.604 46.828 526.48 46.7289 526.443L45.8252 525.911C45.7807 525.89 45.7321 525.879 45.6828 525.879C45.6336 525.879 45.585 525.89 45.5405 525.911L44.6739 526.418C44.612 526.468 44.5996 526.542 44.6739 526.579Z" fill="#3A2C6D"/>
<path d="M43.3988 525.836L44.3025 526.369C44.347 526.39 44.3957 526.401 44.4449 526.401C44.4941 526.401 44.5427 526.39 44.5872 526.369L45.4538 525.861C45.5405 525.861 45.5528 525.737 45.4538 525.7L44.5501 525.18C44.5042 525.156 44.4533 525.144 44.4015 525.144C44.3498 525.144 44.2989 525.156 44.253 525.18L43.3988 525.675C43.3369 525.725 43.3245 525.799 43.3988 525.836Z" fill="#3A2C6D"/>
<path d="M42.1237 525.106L43.0274 525.626C43.0719 525.647 43.1206 525.658 43.1698 525.658C43.219 525.658 43.2676 525.647 43.3121 525.626L44.1787 525.131C44.2654 525.131 44.2654 525.007 44.1787 524.957L43.275 524.437C43.2305 524.416 43.1819 524.406 43.1326 524.406C43.0834 524.406 43.0348 524.416 42.9903 524.437L42.1237 524.933C42.0494 524.982 42.0494 525.056 42.1237 525.106Z" fill="#3A2C6D"/>
<path d="M57.462 533.97L59.3437 535.047C59.3883 535.068 59.4369 535.078 59.4861 535.078C59.5353 535.078 59.5839 535.068 59.6285 535.047L60.4826 534.552C60.5693 534.552 60.5817 534.428 60.4826 534.378L58.6133 533.301C58.5697 533.277 58.5207 533.265 58.471 533.265C58.4212 533.265 58.3723 533.277 58.3286 533.301L57.462 533.796C57.4001 533.846 57.3878 533.92 57.462 533.97Z" fill="#3A2C6D"/>
<path d="M55.5803 534.304L56.484 534.836C56.5286 534.857 56.5772 534.868 56.6264 534.868C56.6756 534.868 56.7242 534.857 56.7688 534.836L57.6354 534.329C57.722 534.329 57.7344 534.205 57.6354 534.168L56.7316 533.648C56.688 533.624 56.639 533.611 56.5893 533.611C56.5395 533.611 56.4906 533.624 56.4469 533.648L55.5803 534.143C55.5184 534.192 55.5184 534.267 55.5803 534.304Z" fill="#3A2C6D"/>
<path d="M54.2805 533.561L55.1842 534.081C55.2287 534.102 55.2773 534.113 55.3266 534.113C55.3758 534.113 55.4244 534.102 55.4689 534.081L56.3355 533.586C56.4222 533.586 56.4345 533.462 56.3355 533.413L55.4194 532.893C55.3749 532.872 55.3263 532.861 55.277 532.861C55.2278 532.861 55.1792 532.872 55.1347 532.893L54.2805 533.388C54.2805 533.45 54.2805 533.561 54.2805 533.561Z" fill="#3A2C6D"/>
<path d="M53.0425 532.831L53.9462 533.351C53.9899 533.375 54.0388 533.387 54.0886 533.387C54.1383 533.387 54.1873 533.375 54.2309 533.351L55.0975 532.856C55.1718 532.856 55.1842 532.732 55.0975 532.695L54.1938 532.162C54.1493 532.141 54.1007 532.13 54.0514 532.13C54.0022 532.13 53.9536 532.141 53.9091 532.162L53.0425 532.67C52.9558 532.719 52.9558 532.794 53.0425 532.831Z" fill="#3A2C6D"/>
<path d="M51.8045 532.088L52.7083 532.62C52.7549 532.642 52.8056 532.653 52.8568 532.653C52.9081 532.653 52.9587 532.642 53.0054 532.62L53.8596 532.113C53.9462 532.113 53.9586 531.989 53.8596 531.952L52.9559 531.432C52.9122 531.408 52.8632 531.396 52.8135 531.396C52.7637 531.396 52.7148 531.408 52.6711 531.432L51.8045 531.927C51.6807 531.977 51.6684 532.051 51.8045 532.088Z" fill="#3A2C6D"/>
<path d="M50.4675 531.358L51.3713 531.877C51.4158 531.898 51.4644 531.909 51.5136 531.909C51.5628 531.909 51.6115 531.898 51.656 531.877L52.5226 531.382C52.6092 531.382 52.6216 531.258 52.5226 531.209L51.6188 530.689C51.5722 530.668 51.5215 530.657 51.4703 530.657C51.419 530.657 51.3684 530.668 51.3217 530.689L50.4675 531.184C50.4056 531.234 50.3933 531.308 50.4675 531.358Z" fill="#3A2C6D"/>
<path d="M49.1925 530.615L50.0962 531.135C50.1398 531.159 50.1888 531.171 50.2385 531.171C50.2883 531.171 50.3372 531.159 50.3809 531.135L51.2475 530.64C51.3341 530.64 51.3341 530.516 51.2475 530.479L50.3438 529.959C50.3001 529.935 50.2511 529.922 50.2014 529.922C50.1516 529.922 50.1027 529.935 50.059 529.959L49.1925 530.454C49.1182 530.503 49.1182 530.578 49.1925 530.615Z" fill="#3A2C6D"/>
<path d="M47.905 529.847L48.8087 530.367C48.8553 530.388 48.906 530.399 48.9572 530.399C49.0085 530.399 49.0591 530.388 49.1058 530.367L49.96 529.872C50.0466 529.872 50.059 529.748 49.96 529.699L49.0563 529.179C49.0126 529.155 48.9637 529.142 48.9139 529.142C48.8642 529.142 48.8152 529.155 48.7715 529.179L47.905 529.674C47.8431 529.761 47.8307 529.847 47.905 529.847Z" fill="#3A2C6D"/>
<path d="M46.6299 529.142L47.5336 529.662C47.5772 529.685 47.6262 529.698 47.6759 529.698C47.7257 529.698 47.7746 529.685 47.8183 529.662L48.6849 529.166C48.7715 529.166 48.7839 529.043 48.6849 528.993L47.7812 528.473C47.7345 528.452 47.6839 528.441 47.6326 528.441C47.5814 528.441 47.5307 528.452 47.4841 528.473L46.6299 528.981C46.568 529.018 46.5556 529.092 46.6299 529.142Z" fill="#3A2C6D"/>
<path d="M45.3548 528.399L46.2585 528.919C46.3028 528.941 46.3515 528.952 46.4009 528.952C46.4502 528.952 46.4989 528.941 46.5432 528.919L47.4098 528.411C47.4964 528.411 47.4964 528.287 47.4098 528.25L46.4937 527.73C46.45 527.707 46.4011 527.694 46.3513 527.694C46.3016 527.694 46.2526 527.707 46.209 527.73L45.3424 528.226C45.2929 528.287 45.2805 528.362 45.3548 528.399Z" fill="#3A2C6D"/>
<path d="M44.0797 527.668L44.9834 528.188C45.0279 528.209 45.0765 528.22 45.1257 528.22C45.175 528.22 45.2236 528.209 45.2681 528.188L46.1347 527.693C46.209 527.693 46.2213 527.569 46.1347 527.52L45.231 527C45.1864 526.979 45.1378 526.968 45.0886 526.968C45.0394 526.968 44.9908 526.979 44.9462 527L44.0797 527.495C44.0054 527.545 44.0054 527.619 44.0797 527.668Z" fill="#3A2C6D"/>
<path d="M42.7922 526.926L43.6959 527.446C43.7418 527.47 43.7927 527.482 43.8445 527.482C43.8962 527.482 43.9471 527.47 43.993 527.446L44.8472 526.951C44.9339 526.951 44.9463 526.827 44.8472 526.79L43.9435 526.257C43.899 526.236 43.8504 526.225 43.8011 526.225C43.7519 526.225 43.7033 526.236 43.6588 526.257L42.7922 526.765C42.7303 526.814 42.7179 526.889 42.7922 526.926Z" fill="#3A2C6D"/>
<path d="M39.9325 525.279L42.4084 526.715C42.453 526.736 42.5016 526.747 42.5508 526.747C42.6 526.747 42.6486 526.736 42.6932 526.715L43.5597 526.208C43.6464 526.208 43.6588 526.084 43.5597 526.047L41.0838 524.611C41.0379 524.587 40.987 524.574 40.9353 524.574C40.8835 524.574 40.8326 524.587 40.7867 524.611L39.9325 525.106C39.8706 525.155 39.8582 525.23 39.9325 525.279Z" fill="#3A2C6D"/>
<path d="M56.8554 535.047L58.0934 535.765C58.1379 535.786 58.1865 535.797 58.2358 535.797C58.285 535.797 58.3336 535.786 58.3781 535.765L59.2447 535.257C59.3314 535.257 59.3437 535.133 59.2447 535.096L58.0067 534.378C57.9622 534.357 57.9136 534.346 57.8644 534.346C57.8152 534.346 57.7665 534.357 57.722 534.378L56.8554 534.886C56.7564 534.935 56.7564 535.01 56.8554 535.047Z" fill="#3A2C6D"/>
<path d="M66.2392 532.509L45.7138 520.649V504.556L45.8747 504.184L46.0356 504.11C46.2512 503.983 46.497 503.915 46.7475 503.915C46.9979 503.915 47.2437 503.983 47.4593 504.11L66.2392 514.942C66.4535 515.07 66.6311 515.252 66.7548 515.468C66.8784 515.685 66.9439 515.931 66.9448 516.18V531.333C66.8086 532.063 66.6601 532.249 66.2392 532.509Z" fill="#E5E5E5"/>
<path d="M64.3575 516.861L45.7138 505.088V504.556L45.8747 504.184L46.0356 504.11C46.2512 503.983 46.497 503.915 46.7475 503.915C46.9979 503.915 47.2437 503.983 47.4593 504.11L66.2392 514.942C66.4702 515.074 66.6558 515.272 66.7715 515.512L64.3575 516.861Z" fill="#E5E5E5"/>
<path d="M46.1842 504.147L65.8925 515.524C65.9962 515.585 66.0825 515.672 66.1432 515.776C66.2038 515.88 66.2369 515.998 66.2392 516.118V532.509L45.7138 520.649V504.42C45.7123 504.364 45.7259 504.309 45.7531 504.26C45.7802 504.212 45.82 504.171 45.8681 504.144C45.9162 504.116 45.971 504.101 46.0266 504.102C46.0823 504.103 46.1367 504.118 46.1842 504.147Z" fill="#DCEEFF"/>
<path d="M46.1842 504.147L65.8925 515.524C65.9962 515.585 66.0825 515.672 66.1432 515.776C66.2038 515.88 66.2369 515.998 66.2392 516.118V532.509L45.7138 520.649V504.42C45.7123 504.364 45.7259 504.309 45.7531 504.26C45.7802 504.212 45.82 504.171 45.8681 504.144C45.9162 504.116 45.971 504.101 46.0266 504.102C46.0823 504.103 46.1367 504.118 46.1842 504.147Z" fill="#F4F4F4"/>
<path d="M66.2392 532.509V531.915L45.7138 520.067V520.649L66.2392 532.509Z" fill="#DBDBDB"/>
<path d="M46.2461 519.795V505.001L46.4937 505.138V519.671L46.2461 519.795Z" fill="#1E3779"/>
<path d="M46.4937 505.138V519.671L65.583 530.652V516.156L46.4937 505.138Z" fill="#3A2C6D"/>
<path d="M46.2461 519.795L65.583 530.949V530.652L46.4937 519.671L46.2461 519.795Z" fill="#031F60"/>
<path d="M24.1485 501.585C23.6533 502.823 24.9037 504.283 28.209 505.299C31.5144 506.314 31.8115 505.001 31.8115 505.001C34.0161 505.989 36.1651 507.097 38.2489 508.319C40.2296 509.706 41.1086 513.729 41.3809 520.513C41.6904 528.362 41.7152 539.999 41.4552 542.016C41.4552 542.016 37.7413 545.73 32.9999 545.322C28.2585 544.913 20.2489 540.729 18.3177 537.485C18.3177 530.602 19.1719 529.476 18.0577 525.514C15.5075 516.44 14.1582 512.726 15.4085 506.685C16.4236 501.733 17.8844 501.102 19.828 501.151C21.2748 501.22 22.7169 501.365 24.1485 501.585Z" fill="#F4F4F4"/>
<path d="M49.1924 528.943C45.2929 529.934 44.3768 527.47 43.8692 525.44C42.6313 520.488 41.9628 516.056 41.0343 513.259C39.9449 509.966 38.806 509.433 37.1966 508.79C35.3273 508.034 33.7056 509.631 34.3245 513.828C35.0966 518.702 36.2937 523.499 37.9022 528.164C38.4716 530.264 39.5715 532.182 41.0962 533.734C43.1141 535.369 46.1471 535.294 50.7275 534.155C53.4139 533.24 56.0221 532.11 58.5267 530.776C59.517 530.318 60.2846 530.008 62.2406 529.117C64.1782 528.27 65.8786 526.961 67.1924 525.304C68.1828 523.855 68.3189 523.175 68.1209 522.828C67.9228 522.481 67.4028 522.506 66.8829 523.113C66.1145 524.137 65.1666 525.014 64.0851 525.7C64.0851 525.7 65.3231 524.462 65.9792 523.608C66.5804 522.853 67.076 522.02 67.4524 521.132C67.8114 520.29 67.081 519.151 66.5239 519.745C65.9668 520.34 65.7192 520.983 64.7041 522.221C64.174 522.866 63.567 523.444 62.8967 523.942C63.5249 523.097 64.0838 522.203 64.5679 521.268C65.0023 520.518 65.2127 519.659 65.1745 518.792C65.1745 518.359 64.5184 517.839 63.9366 518.668C63.3336 519.851 62.585 520.953 61.7082 521.949C60.8169 522.878 60.0617 523.41 60.037 523.187C60.0122 522.964 60.5817 522.419 60.8912 521.355C61.2007 520.29 60.8912 519.139 60.297 519.015C59.7027 518.891 59.8142 518.916 59.3437 519.931C58.6829 520.964 58.0915 522.039 57.5734 523.15C57.2681 524.187 56.7158 525.134 55.9641 525.911C55.0232 526.889 52.9063 528.015 49.1924 528.943Z" fill="#FFCEA9"/>
<path d="M35.7111 508.121C38.3108 507.737 40.1553 508.913 41.3066 512.85C42.4579 516.787 43.2502 520.03 43.2502 520.03C42.2226 521.519 40.6627 522.556 38.8926 522.927C35.7853 523.682 34.6588 522.197 34.6588 522.197C34.6588 522.197 33.7922 518.062 33.2599 515.252C32.7276 512.442 32.5419 508.591 35.7111 508.121Z" fill="#EDEDED"/>
<path d="M37.0481 487.93C37.0481 487.93 41.1581 481.678 32.2448 480.403C25.8198 479.487 21.685 483.609 21.2145 488.091C20.7565 492.374 23.3933 496.818 25.2874 498.589C27.1589 499.065 29.1407 498.827 30.8459 497.92C30.9521 496.751 30.9935 495.578 30.9697 494.404C30.9697 494.404 27.8376 487.819 37.0481 487.93Z" fill="#321645"/>
<path d="M54.8871 567.048V548.268L39.9696 556.971L45.7138 568.843L54.8871 567.048Z" fill="#C4C7D6"/>
<path d="M45.1072 549.345L50.8266 546.028L54.8747 548.367L48.9449 551.735L45.1072 549.345Z" fill="#D6D8E5"/>
<path opacity="0.4" d="M280.951 464.235L210.486 423.556C205.398 420.622 206.042 415.497 211.91 412.105L257.566 385.749L346.439 437.099L300.796 463.455C294.915 466.847 286.039 467.206 280.951 464.235Z" fill="#D6D8E5"/>
<path d="M286.101 461.252L215.624 420.56C210.548 417.626 211.192 412.513 217.047 409.121L262.703 382.765L351.577 434.066L305.921 460.435C300.053 463.815 291.177 464.235 286.101 461.252Z" fill="#B1B4C4"/>
<path d="M351.577 434.066V431.38L347.479 433.744L351.577 434.066Z" fill="#B1B4C4"/>
<path d="M212.195 415.72V412.984L216.416 414.729L212.195 415.72Z" fill="#B1B4C4"/>
<path d="M286.101 458.566L215.624 417.874C210.548 414.94 211.192 409.815 217.047 406.435L262.703 380.054L351.577 431.368L305.921 457.724C300.053 461.128 291.177 461.487 286.101 458.566Z" fill="#D6D8E5"/>
<path d="M262.951 380.19L251.946 343.695L341.784 395.231L351.577 431.38L262.951 380.19Z" fill="#9EA1AF"/>
<path d="M348.977 432.878L351.577 431.38L347.677 428.335L348.977 432.878Z" fill="#9EA1AF"/>
<path d="M260.116 381.564L249.111 345.069L338.95 396.606L348.977 432.878L260.116 381.564Z" fill="#B1B4C4"/>
<path d="M488.173 494.38L140.418 293.607C135.54 290.785 131.591 283.233 131.591 276.734V7.73727C131.591 1.23797 135.54 -1.75789 140.418 1.06466L488.173 201.788C493.051 204.598 497 212.149 497 218.661V487.757C497 494.206 493.051 497.202 488.173 494.38Z" fill="#C4C7D6"/>
<path d="M489.956 497.153L493.818 494.937L492.147 483.511L489.956 497.153Z" fill="#C4C7D6"/>
<path d="M130.96 2.71114L134.748 0.532333L140.195 3.63962C140.195 3.63962 134.389 4.51857 134.253 4.48143C134.117 4.44429 130.96 2.71114 130.96 2.71114Z" fill="#B1B4C4"/>
<path d="M484.979 496.224L137.224 295.452C132.346 292.629 128.385 285.078 128.385 278.578V9.58183C128.385 3.07015 132.346 0.0866686 137.224 2.89684L484.967 203.669C489.845 206.492 493.806 214.044 493.806 220.555V489.539C493.818 496.051 489.857 499.035 484.979 496.224Z" fill="#E4E7F2"/>
<path d="M484.373 496.571L136.617 295.798C131.74 292.976 127.791 285.424 127.791 278.925V9.9037C127.791 3.4044 131.74 0.408535 136.617 3.23109L484.373 204.028C489.25 206.839 493.2 214.39 493.2 220.902V489.898C493.2 496.422 489.25 499.394 484.373 496.571Z" fill="#1C1322"/>
<path opacity="0.3" d="M488.421 480.218L132.198 274.555L132.383 11.0055C132.383 8.30673 134.277 7.21732 136.617 8.52956L484.373 209.339C485.606 210.142 486.631 211.223 487.367 212.497C488.103 213.77 488.527 215.199 488.607 216.668L488.421 480.218Z" fill="url(#paint0_linear_216_412)"/>
<path d="M348.445 175.89L324.837 162.26V153.742L348.445 167.372V175.89Z" fill="#A298E2"/>
<path d="M403.014 207.42L352.864 178.44V169.923L403.014 198.903V207.42Z" fill="#F4CE2C"/>
<path d="M348.445 203.137L324.837 189.519V181.002L348.445 194.62V203.137Z" fill="#A298E2"/>
<path d="M369.478 215.492L352.864 205.7V197.182L369.478 206.975V215.492Z" fill="#4D3BFF"/>
<path d="M348.445 216.767L324.837 203.137V194.62L348.445 208.25V216.767Z" fill="#A298E2"/>
<path d="M380.892 235.497L352.864 219.317V210.8L380.892 226.98V235.497Z" fill="#4D3BFF"/>
<path d="M348.445 230.385L324.837 216.767V208.25L348.445 221.88V230.385Z" fill="#A298E2"/>
<path d="M426.783 275.521L352.864 232.947V224.43L426.783 267.016V275.521Z" fill="#FF8657"/>
<path d="M348.445 189.519L324.837 175.89V167.372L348.445 181.002V189.519Z" fill="#A298E2"/>
<path d="M444.944 245.29L352.864 192.07V183.553L444.944 236.772V245.29Z" fill="#A298E2"/>
<path d="M348.445 244.015L324.837 230.385V221.867L348.445 235.497V244.015Z" fill="#A298E2"/>
<path d="M432.515 293.409L352.864 246.577V238.06L432.515 284.892V293.409Z" fill="#C33AFC"/>
<path d="M348.445 271.274L324.837 257.645V249.127L348.445 262.757V271.274Z" fill="#A298E2"/>
<path d="M445.798 327.478L352.864 273.825V265.307L445.798 318.961V327.478Z" fill="#A298E2"/>
<path d="M348.445 284.892L324.837 271.274V262.757L348.445 276.375V284.892Z" fill="#A298E2"/>
<path d="M380.892 303.635L352.864 287.442V278.937L380.892 295.118V303.635Z" fill="#C33AFC"/>
<path d="M348.445 298.522L324.837 284.892V276.375L348.445 290.005V298.522Z" fill="#A298E2"/>
<path d="M410.132 334.287L352.864 301.072V292.555L410.132 325.769V334.287Z" fill="#4D3BFF"/>
<path d="M348.445 257.645L324.837 244.015V235.497L348.445 249.127V257.645Z" fill="#A298E2"/>
<path d="M363.189 266.162L352.864 260.195V251.678L363.189 257.644V266.162Z" fill="#4D3BFF"/>
<path d="M348.445 312.152L324.837 298.522V290.005L348.445 303.635V312.152Z" fill="#A298E2"/>
<path d="M389.83 335.995L352.864 314.702V306.185L389.83 327.478V335.995Z" fill="#C33AFC"/>
<path d="M348.445 339.399L324.837 325.769V317.252L348.445 330.882V339.399Z" fill="#A298E2"/>
<path d="M406.802 372.701L352.864 341.95V333.432L406.802 364.183V372.701Z" fill="#FF8657"/>
<path d="M348.445 353.029L324.837 339.399V330.882L348.445 344.512V353.029Z" fill="#A298E2"/>
<path d="M359.599 359.838L352.864 355.58V347.062L359.599 351.321V359.838Z" fill="#A298E2"/>
<path d="M348.445 366.647L324.837 353.029V344.512L348.445 358.13V366.647Z" fill="#A298E2"/>
<path d="M383.801 387.024L352.864 369.21V360.692L383.801 378.507V387.024Z" fill="#F4CE2C"/>
<path d="M348.445 325.77L324.837 312.152V303.622L348.445 317.252V325.77Z" fill="#A298E2"/>
<path d="M395.908 353.029L352.864 328.32V319.815L395.908 344.512V353.029Z" fill="#4D3BFF"/>
<path d="M195.755 90.7302L172.147 77.1002V68.5831L195.755 82.213V90.7302Z" fill="#A298E2"/>
<path d="M300.486 151.192L200.174 93.2804V84.7632L300.486 142.675V151.192Z" fill="#C33AFC"/>
<path d="M195.755 117.978L172.147 104.348V95.8306L195.755 109.461V117.978Z" fill="#A298E2"/>
<path d="M266.554 158.855L200.174 120.528V112.011L266.554 150.338V158.855Z" fill="#F4CE2C"/>
<path d="M195.755 131.608L172.147 117.978V109.461L195.755 123.09V131.608Z" fill="#A298E2"/>
<path d="M282.783 181.844L200.174 134.158V125.641L282.783 173.327V181.844Z" fill="#FF8657"/>
<path d="M195.755 145.225L172.147 131.608V123.09L195.755 136.708V145.225Z" fill="#A298E2"/>
<path d="M257.702 181.002L200.174 147.788V139.271L257.702 172.485V181.002Z" fill="#A298E2"/>
<path d="M195.755 104.348L172.147 90.7178V82.213L195.755 95.8306V104.348Z" fill="#A298E2"/>
<path d="M250.324 135.866L200.174 106.91V98.3932L250.324 127.349V135.866Z" fill="#4D3BFF"/>
<path d="M195.755 158.855L172.147 145.225V136.708L195.755 150.338V158.855Z" fill="#A298E2"/>
<path d="M229.675 178.44L200.174 161.405V152.888L229.675 169.923V178.44Z" fill="#C33AFC"/>
<path d="M195.755 186.103L172.147 172.473V163.968L195.755 177.586V186.103Z" fill="#A298E2"/>
<path d="M293.108 242.319L200.174 188.665V180.148L293.108 233.801V242.319Z" fill="#F4CE2C"/>
<path d="M195.755 199.733L172.147 186.103V177.586L195.755 191.216V199.733Z" fill="#A298E2"/>
<path d="M228.202 218.463L200.174 202.283V193.766L228.202 209.946V218.463Z" fill="#FF8657"/>
<path d="M195.755 213.363L172.147 199.733V191.216L195.755 204.845V213.363Z" fill="#A298E2"/>
<path d="M282.783 263.599L200.174 215.913V207.396L282.783 255.094V263.599Z" fill="#A298E2"/>
<path d="M195.755 172.485L172.147 158.855V150.338L195.755 163.968V172.485Z" fill="#A298E2"/>
<path d="M278.351 220.171L200.174 175.035V166.518L278.351 211.654V220.171Z" fill="#4D3BFF"/>
<path d="M195.755 226.98L172.147 213.35V204.845L195.755 218.463V226.98Z" fill="#A298E2"/>
<path d="M210.499 235.497L200.174 229.543V221.026L210.499 226.98V235.497Z" fill="#C33AFC"/>
<path d="M195.755 254.24L172.147 240.61V232.093L195.755 245.723V254.24Z" fill="#A298E2"/>
<path d="M219.35 267.858L200.174 256.79V248.273L219.35 259.34V267.858Z" fill="#F4CE2C"/>
<path d="M195.755 267.858L172.147 254.24V245.723L195.755 259.341V267.858Z" fill="#A298E2"/>
<path d="M250.324 299.376L200.174 270.42V261.903L250.324 290.859V299.376Z" fill="#FF8657"/>
<path d="M195.755 281.488L172.147 267.858V259.341L195.755 272.97V281.488Z" fill="#A298E2"/>
<path d="M279.825 330.028L200.174 284.038V275.521L279.825 321.511V330.028Z" fill="#A298E2"/>
<path d="M195.755 240.61L172.147 226.98V218.463L195.755 232.093V240.61Z" fill="#A298E2"/>
<path d="M300.486 301.072L200.174 243.16V234.643L300.486 292.555V301.072Z" fill="#4D3BFF"/>
<path opacity="0.4" d="M377.079 618.981C405.685 618.981 428.875 605.59 428.875 589.072C428.875 572.553 405.685 559.162 377.079 559.162C348.472 559.162 325.282 572.553 325.282 589.072C325.282 605.59 348.472 618.981 377.079 618.981Z" fill="#D6D8E5"/>
<path d="M433.963 584.825V505.088L330.581 507.688L330.804 581.223C328.873 590.074 333.775 599.322 345.548 606.118C365.776 617.792 398.57 617.805 418.798 606.118C428.962 600.213 434.013 592.513 433.963 584.825Z" fill="#E23E57"/>
<path d="M382.167 534.96C410.773 534.96 433.963 521.569 433.963 505.051C433.963 488.532 410.773 475.142 382.167 475.142C353.56 475.142 330.37 488.532 330.37 505.051C330.37 521.569 353.56 534.96 382.167 534.96Z" fill="#F24B64"/>
<path d="M425.78 505.088C425.78 509.953 421.732 515.066 414.7 519.139C407.025 523.546 396.539 526.27 385.497 526.715C384.395 526.715 383.293 526.79 382.179 526.79C369.923 526.79 358.076 523.992 349.645 519.139C342.614 515.066 338.566 509.953 338.566 505.088C338.566 500.223 342.614 495.11 349.645 491.037C358.076 486.172 369.923 483.374 382.167 483.374C383.281 483.374 384.395 483.374 385.497 483.448C396.539 483.894 407.025 486.618 414.7 491.037C421.732 495.073 425.78 500.136 425.78 505.088Z" fill="#1F1E2E"/>
<path opacity="0.07" d="M425.78 505.088C425.78 509.953 421.732 515.066 414.7 519.139C407.025 523.546 396.539 526.27 385.497 526.715C374.454 526.27 363.956 523.546 356.293 519.139C349.249 514.992 345.201 509.916 345.201 505.088C345.201 500.26 349.237 495.11 356.269 491.037C363.944 486.618 374.442 483.894 385.485 483.448C396.527 483.894 407.013 486.618 414.688 491.037C421.732 495.073 425.78 500.136 425.78 505.088Z" fill="white"/>
<path d="M426.387 541.992L415.394 535.629L410.046 538.724L415.394 541.819V543.849L425.706 549.791L425.396 551.697C426.894 552.935 432.23 562.839 432.23 562.839L432.601 562.492V588.155C432.601 594.89 428.652 592.612 426.969 591.634L415.394 584.949L410.046 588.032L415.394 591.114V593.144L426.969 599.829C428.138 600.531 429.384 601.096 430.682 601.513L429.989 604.732L435.981 601.352H436.068H436.154C438.63 599.891 439.682 596.338 439.682 592.352V565.426C439.732 554.05 431.004 545.124 426.387 541.992Z" fill="#3E2637"/>
<path d="M421.621 602.962L410.046 596.277V588.032L421.621 594.717C423.304 595.682 427.253 597.973 427.253 591.226V564.424C427.253 558.085 421.521 553.703 420.543 553.01L410.046 546.944V538.724L421.039 545.087C425.669 548.219 434.334 557.157 434.334 568.534V595.36C434.334 602.603 431.029 608.384 421.621 602.962Z" fill="#42253B"/>
<path opacity="0.4" d="M57.2144 460.534C76.912 460.534 92.8801 451.311 92.8801 439.934C92.8801 428.557 76.912 419.334 57.2144 419.334C37.5168 419.334 21.5488 428.557 21.5488 439.934C21.5488 451.311 37.5168 460.534 57.2144 460.534Z" fill="#D6D8E5"/>
<path d="M62.3025 456.721C82 456.721 97.9681 447.498 97.9681 436.121C97.9681 424.744 82 415.521 62.3025 415.521C42.6049 415.521 26.6368 424.744 26.6368 436.121C26.6368 447.498 42.6049 456.721 62.3025 456.721Z" fill="#D6D8E5"/>
<path d="M14.5543 365.706L27.033 437.545H97.8814L110.051 366.226L14.5543 365.706Z" fill="#D6D8E5"/>
<path d="M62.3025 392.409C88.7004 392.409 110.1 380.055 110.1 364.815C110.1 349.575 88.7004 337.221 62.3025 337.221C35.9045 337.221 14.5048 349.575 14.5048 364.815C14.5048 380.055 35.9045 392.409 62.3025 392.409Z" fill="#E4E6EF"/>
<path d="M62.3024 386.318C50.5913 386.318 39.6725 383.743 31.5515 379.051C24.5818 375.04 20.5956 369.841 20.5956 364.815C20.5956 359.788 24.5818 354.589 31.5515 350.578C39.6601 345.886 50.5913 343.311 62.3024 343.311C74.0135 343.311 84.9447 345.886 93.0534 350.578C100.023 354.589 104.009 359.788 104.009 364.815C104.009 369.841 100.085 375.102 93.0534 379.051C84.9447 383.768 74.0878 386.318 62.3024 386.318Z" fill="#28221C"/>
<path d="M82.865 343.076C83.5415 333.793 82.0632 324.479 78.5457 315.861C75.0282 307.243 69.5666 299.555 62.5872 293.397L62.451 293.261V293.521C55.4652 299.68 49.9986 307.371 46.4787 315.994C42.9589 324.616 41.481 333.936 42.1608 343.225L14.8143 340.588C26.3521 384.053 62.5872 380.314 62.5872 380.314V380.227C65.3231 380.438 99.1194 382.183 110.174 340.489L82.865 343.076Z" fill="#99B524"/>
<path d="M62.5872 380.314C62.5872 380.314 60.1113 346.468 14.7029 323.677C14.6657 323.677 3.94498 379.906 62.5872 380.314Z" fill="#A6CE28"/>
<path d="M62.3025 380.314C62.3025 380.314 64.7784 346.468 110.187 323.677C110.187 323.677 120.945 379.906 62.3025 380.314Z" fill="#A6CE28"/>
</g>
<defs>
<filter id="filter0_d_216_412" x="0" y="0" width="503" height="638.981" filterUnits="userSpaceOnUse" color-interpolation-filters="sRGB">
<feFlood flood-opacity="0" result="BackgroundImageFix"/>
<feColorMatrix in="SourceAlpha" type="matrix" values="0 0 0 0 0 0 0 0 0 0 0 0 0 0 0 0 0 0 127 0" result="hardAlpha"/>
<feOffset dy="14"/>
<feGaussianBlur stdDeviation="3"/>
<feColorMatrix type="matrix" values="0 0 0 0 0 0 0 0 0 0 0 0 0 0 0 0 0 0 0.5 0"/>
<feBlend mode="normal" in2="BackgroundImageFix" result="effect1_dropShadow_216_412"/>
<feBlend mode="normal" in="SourceGraphic" in2="effect1_dropShadow_216_412" result="shape"/>
</filter>
<linearGradient id="paint0_linear_216_412" x1="132.198" y1="244.101" x2="488.607" y2="244.101" gradientUnits="userSpaceOnUse">
<stop offset="0.21" stop-color="white" stop-opacity="0"/>
<stop offset="1" stop-color="white" stop-opacity="0.2"/>
</linearGradient>
<clipPath id="clip0_216_412">
<rect width="491" height="618.981" fill="white" transform="translate(6)"/>
</clipPath>
</defs>
</svg>
