<svg width="19" height="19" viewBox="0 0 19 19" fill="none" xmlns="http://www.w3.org/2000/svg">
<path d="M9.49919 1.57782C5.13394 1.57861 1.58252 5.13003 1.58252 9.49528C1.58252 13.8605 5.13394 17.412 9.49998 17.412C13.8644 17.412 17.4159 13.8605 17.4166 9.49528C17.4166 5.13003 13.8652 1.57861 9.49919 1.57782ZM9.49998 15.8286C6.00714 15.8286 3.16585 12.9873 3.16585 9.49528C3.16585 6.00324 6.00714 3.16195 9.49919 3.16115C12.992 3.16195 15.8333 6.00324 15.8333 9.49528C15.8325 12.9873 12.9912 15.8286 9.49998 15.8286Z" fill="#F5DCE0"/>
<path d="M9.50004 8.70361H6.33337V10.2869H9.50004V12.6667L12.6707 9.49607L9.50004 6.32623V8.70361Z" fill="#E23E57"/>
</svg>
