<svg width="316" height="312" viewBox="0 0 316 312" fill="none" xmlns="http://www.w3.org/2000/svg">
<g filter="url(#filter0_d_238_34)">
<path d="M156 272.25C128.588 272.25 107.125 262.9 107.125 251C107.125 239.1 128.588 229.75 156 229.75C183.412 229.75 204.875 239.1 204.875 251C204.875 262.9 183.412 272.25 156 272.25ZM156 234C129.225 234 111.375 242.712 111.375 251C111.375 259.288 129.225 268 156 268C182.775 268 200.625 259.288 200.625 251C200.625 242.712 182.775 234 156 234Z" fill="#80DEEA"/>
<path d="M137.087 294.775C134.962 294.775 133.262 294.35 131.562 293.287C121.15 287.337 123.912 264.175 137.512 240.375C143.887 229.325 151.75 219.975 159.4 214.025C167.687 207.65 175.125 205.737 180.225 208.712C185.537 211.687 187.45 219.125 186.175 229.537C184.9 239.312 180.65 250.787 174.275 261.837C167.9 272.887 160.037 282.237 152.387 288.187C146.862 292.437 141.55 294.775 137.087 294.775ZM174.912 211.475C171.512 211.475 167.05 213.387 162.162 217.212C154.937 222.95 147.5 231.875 141.337 242.5C127.95 265.662 126.675 285.637 133.687 289.675C137.3 291.8 143.25 289.887 149.837 284.787C157.062 279.05 164.5 270.125 170.662 259.5C176.825 248.875 180.862 238.037 182.137 228.9C183.2 220.4 181.925 214.45 178.312 212.325C177.25 211.9 176.187 211.475 174.912 211.475Z" fill="#80DEEA"/>
<path d="M175.125 294.775C164.5 294.775 149.2 281.813 137.725 261.625C123.912 237.825 121.15 214.663 131.562 208.713C141.975 202.763 160.675 216.575 174.487 240.375C180.862 251.425 185.112 262.9 186.387 272.675C187.875 283.088 185.75 290.313 180.437 293.5C178.737 294.35 177.037 294.775 175.125 294.775ZM133.687 212.325C126.675 216.363 127.95 236.338 141.337 259.5C154.725 282.663 171.3 293.713 178.312 289.675C181.925 287.55 183.2 281.6 182.137 273.1C180.862 263.963 176.825 253.125 170.662 242.5C157.275 219.338 140.7 208.288 133.687 212.325Z" fill="#80DEEA"/>
<path d="M156 259.5C160.694 259.5 164.5 255.694 164.5 251C164.5 246.306 160.694 242.5 156 242.5C151.306 242.5 147.5 246.306 147.5 251C147.5 255.694 151.306 259.5 156 259.5Z" fill="#80DEEA"/>
<path d="M55.0999 114.625C51.7955 114.636 49.5048 114.927 46.7359 115.405C38.5589 116.829 37.0693 119.819 37.0693 125.329V133.75H56.1943V138H36.3425H27.0988C21.4973 138 16.5949 140.639 15.0415 146.965C13.2863 154.227 13.2076 158.774 15.0415 166.356C16.4334 172.011 19.4998 176.25 25.1034 176.25H32.8214V165.404C32.8214 159.101 38.5291 152.875 45.0699 152.875H60.4464C65.8078 152.875 71.0714 148.918 71.0714 143.574V125.329C71.0714 120.146 67.3335 116.27 62.1081 115.401C62.2377 115.388 58.3766 114.612 55.0999 114.625ZM44.5089 123.125C46.2535 123.125 47.6964 124.564 47.6964 126.317C47.6964 128.087 46.2535 129.5 44.5089 129.5C42.7303 129.5 41.3214 128.089 41.3214 126.317C41.3214 124.57 42.7303 123.125 44.5089 123.125Z" fill="#0277BD"/>
<path d="M53.0407 195.375C56.3451 195.364 58.6359 195.073 61.4047 194.595C69.5817 193.171 71.0714 190.182 71.0714 184.671V176.25H51.9464V172H71.8002H81.044C86.6455 172 91.5479 169.361 93.1012 163.035C94.8565 155.774 94.9351 151.226 93.1012 143.644C91.7072 137.989 88.6409 133.75 83.0372 133.75H75.3192V144.596C75.3192 150.899 69.6115 157.125 63.0707 157.125H47.6942C42.3329 157.125 37.0692 161.082 37.0692 166.426V184.671C37.0692 189.854 40.8071 193.73 46.0325 194.599C45.9029 194.612 49.764 195.388 53.0407 195.375ZM63.6339 186.875C61.8892 186.875 60.4464 185.436 60.4464 183.683C60.4464 181.913 61.8892 180.5 63.6339 180.5C65.4125 180.5 66.8214 181.911 66.8214 183.683C66.8214 185.43 65.4104 186.875 63.6339 186.875Z" fill="#FFC107"/>
<path d="M225.375 189.625V115.375H299.625V189.625H225.375Z" fill="#FFD600"/>
<path d="M262.052 149.101V169.353C262.052 177.116 253.019 177.648 249.094 171.007" stroke="#000001" stroke-width="6.6" stroke-miterlimit="10"/>
<path d="M284.548 155.27C280.961 149.645 272.846 150.433 272.503 156.421C272.062 164.17 286.462 162.48 285.388 171.079C284.635 177.101 275.335 179.036 270.552 170.945" stroke="#000001" stroke-width="6.6" stroke-miterlimit="10"/>
<path d="M251.125 10.625H178.875L185.25 82.8751L215 91.3751L244.75 82.8751L251.125 10.625Z" fill="#0277BD"/>
<path d="M215 17V84.7874L238.8 77.9874L244.113 17H215Z" fill="#039BE5"/>
<path d="M234.337 27.625H215V36.125H225.412L224.775 44.6249H215V53.1249H224.35L223.712 62.6874L215 65.6624V74.5873L231.787 69.0624L233.275 44.6249L234.337 27.625Z" fill="white"/>
<path d="M215 27.625V36.125H196.088L195.45 27.625H215ZM205.225 44.6249L205.65 53.1249H215V44.6249H205.225ZM206.075 57.3749H197.575L198.213 69.0624L215 74.5873V65.6624L206.288 62.6874L206.075 57.3749Z" fill="#EEEEEE"/>
<path d="M132.125 10.625H59.875L66.25 82.875L96 91.375L125.75 82.875L132.125 10.625Z" fill="#E65100"/>
<path d="M96 17V84.7875L119.8 77.9875L125.113 17H96Z" fill="#FF6D00"/>
<path d="M96 53.125V44.625H114.275L112.788 69.0625L96 74.5875V65.6625L104.713 62.6875L105.35 53.125H96V53.125ZM114.913 36.125L115.55 27.625H96V36.125H114.913Z" fill="white"/>
<path d="M96 65.6625V74.5875L79.2125 69.0625L78.3625 57.375H86.8625L87.2875 62.6875L96 65.6625ZM85.5875 36.125H96V27.625H76.6625L78.15 53.125H96V44.625H86.225L85.5875 36.125Z" fill="#EEEEEE"/>
</g>
<defs>
<filter id="filter0_d_238_34" x="0" y="0" width="316" height="317" filterUnits="userSpaceOnUse" color-interpolation-filters="sRGB">
<feFlood flood-opacity="0" result="BackgroundImageFix"/>
<feColorMatrix in="SourceAlpha" type="matrix" values="0 0 0 0 0 0 0 0 0 0 0 0 0 0 0 0 0 0 127 0" result="hardAlpha"/>
<feOffset dy="6"/>
<feGaussianBlur stdDeviation="2"/>
<feColorMatrix type="matrix" values="0 0 0 0 0.321569 0 0 0 0 0.145098 0 0 0 0 0.27451 0 0 0 0.96 0"/>
<feBlend mode="normal" in2="BackgroundImageFix" result="effect1_dropShadow_238_34"/>
<feBlend mode="normal" in="SourceGraphic" in2="effect1_dropShadow_238_34" result="shape"/>
</filter>
</defs>
</svg>
