<svg width="79" height="79" viewBox="0 0 79 79" fill="none" xmlns="http://www.w3.org/2000/svg">
<path d="M39.5001 39.5H62.5417M16.4584 39.5C13.8394 39.5 11.3277 38.4596 9.47573 36.6077C7.62381 34.7558 6.58341 32.244 6.58341 29.625C6.58341 27.006 7.62381 24.4942 9.47573 22.6423C11.3277 20.7904 13.8394 19.75 16.4584 19.75C19.0774 19.75 21.5892 20.7904 23.4411 22.6423C25.293 24.4942 26.3334 27.006 26.3334 29.625C26.3334 32.244 25.293 34.7558 23.4411 36.6077C21.5892 38.4596 19.0774 39.5 16.4584 39.5ZM29.6251 59.25V52.6667C29.6251 45.2604 23.7429 39.5 16.3399 39.5H16.5177C9.11141 39.5 3.29175 45.2604 3.29175 52.6667V59.25H29.6251ZM39.5001 23.0417H79.0001H39.5001ZM39.5001 55.9583H72.4167H39.5001Z" stroke="#E23E57" stroke-width="3"/>
</svg>
