<svg width="31" height="31" viewBox="0 0 31 31" fill="none" xmlns="http://www.w3.org/2000/svg">
<path fill-rule="evenodd" clip-rule="evenodd" d="M10.1036 2.10826C11.5698 2.04076 12.0373 2.02576 15.7723 2.02576C19.5073 2.02576 19.9748 2.04201 21.4398 2.10826C22.9048 2.17451 23.9048 2.40826 24.7798 2.74701C25.6961 3.09326 26.5273 3.63451 27.2148 4.33451C27.9148 5.02076 28.4548 5.85076 28.7998 6.76825C29.1398 7.64325 29.3723 8.64325 29.4398 10.1058C29.5073 11.5745 29.5223 12.042 29.5223 15.7757C29.5223 19.5107 29.5061 19.9782 29.4398 21.4445C29.3736 22.907 29.1398 23.907 28.7998 24.782C28.4548 25.6996 27.9139 26.531 27.2148 27.2182C26.5273 27.9182 25.6961 28.4582 24.7798 28.8032C23.9048 29.1432 22.9048 29.3757 21.4423 29.4432C19.9748 29.5107 19.5073 29.5257 15.7723 29.5257C12.0373 29.5257 11.5698 29.5095 10.1036 29.4432C8.64109 29.377 7.64109 29.1432 6.76609 28.8032C5.84849 28.4582 5.01711 27.9173 4.32984 27.2182C3.63031 26.5316 3.08898 25.7006 2.74359 24.7832C2.40484 23.9082 2.17234 22.9082 2.10484 21.4457C2.03734 19.977 2.02234 19.5095 2.02234 15.7757C2.02234 12.0408 2.03859 11.5733 2.10484 10.1083C2.17109 8.64325 2.40484 7.64325 2.74359 6.76825C3.08949 5.85086 3.63124 5.0199 4.33109 4.33326C5.01739 3.63388 5.84793 3.09256 6.76484 2.74701C7.63984 2.40826 8.63984 2.17576 10.1023 2.10826H10.1036ZM21.3286 4.58326C19.8786 4.51701 19.4436 4.50326 15.7723 4.50326C12.1011 4.50326 11.6661 4.51701 10.2161 4.58326C8.87484 4.64451 8.14734 4.86826 7.66234 5.05701C7.02109 5.30701 6.56234 5.60326 6.08109 6.08451C5.62489 6.52832 5.27381 7.06861 5.05359 7.66575C4.86484 8.15075 4.64109 8.87825 4.57984 10.2195C4.51359 11.6695 4.49984 12.1045 4.49984 15.7757C4.49984 19.447 4.51359 19.882 4.57984 21.332C4.64109 22.6732 4.86484 23.4007 5.05359 23.8857C5.27359 24.482 5.62484 25.0232 6.08109 25.467C6.52484 25.9232 7.06609 26.2745 7.66234 26.4945C8.14734 26.6832 8.87484 26.907 10.2161 26.9682C11.6661 27.0345 12.0998 27.0482 15.7723 27.0482C19.4448 27.0482 19.8786 27.0345 21.3286 26.9682C22.6698 26.907 23.3973 26.6832 23.8823 26.4945C24.5236 26.2445 24.9823 25.9482 25.4636 25.467C25.9198 25.0232 26.2711 24.482 26.4911 23.8857C26.6798 23.4007 26.9036 22.6732 26.9648 21.332C27.0311 19.882 27.0448 19.447 27.0448 15.7757C27.0448 12.1045 27.0311 11.6695 26.9648 10.2195C26.9036 8.87825 26.6798 8.15075 26.4911 7.66575C26.2411 7.0245 25.9448 6.56575 25.4636 6.08451C25.0197 5.62834 24.4795 5.27727 23.8823 5.05701C23.3973 4.86826 22.6698 4.64451 21.3286 4.58326V4.58326ZM14.0161 20.0145C14.9969 20.4228 16.0891 20.4779 17.106 20.1704C18.1229 19.8629 19.0016 19.2119 19.5918 18.3286C20.1821 17.4452 20.4474 16.3843 20.3424 15.3271C20.2374 14.2699 19.7686 13.282 19.0161 12.532C18.5364 12.0526 17.9563 11.6855 17.3177 11.4572C16.6791 11.2289 15.9979 11.145 15.323 11.2115C14.648 11.2781 13.9963 11.4935 13.4146 11.8422C12.8329 12.1909 12.3358 12.6642 11.959 13.2281C11.5822 13.7919 11.3351 14.4324 11.2355 15.1032C11.1359 15.774 11.1863 16.4586 11.383 17.1076C11.5797 17.7567 11.9179 18.354 12.3732 18.8567C12.8285 19.3593 13.3896 19.7547 14.0161 20.0145ZM10.7748 10.7783C11.4311 10.122 12.2102 9.60138 13.0677 9.24621C13.9252 8.89103 14.8442 8.70822 15.7723 8.70822C16.7005 8.70822 17.6195 8.89103 18.477 9.2462C19.3344 9.60138 20.1135 10.122 20.7698 10.7783C21.4261 11.4345 21.9467 12.2137 22.3019 13.0711C22.6571 13.9286 22.8399 14.8476 22.8399 15.7757C22.8399 16.7039 22.6571 17.6229 22.3019 18.4804C21.9467 19.3378 21.4261 20.117 20.7698 20.7732C19.4444 22.0987 17.6468 22.8433 15.7723 22.8433C13.8979 22.8433 12.1003 22.0987 10.7748 20.7732C9.44942 19.4478 8.7048 17.6502 8.7048 15.7757C8.7048 13.9013 9.44942 12.1037 10.7748 10.7783V10.7783ZM24.4073 9.76075C24.57 9.60734 24.7002 9.42285 24.7902 9.21822C24.8803 9.01359 24.9283 8.79296 24.9316 8.56942C24.9349 8.34587 24.8932 8.12394 24.8092 7.91677C24.7251 7.70959 24.6004 7.52139 24.4423 7.3633C24.2842 7.20521 24.096 7.08045 23.8888 6.9964C23.6816 6.91235 23.4597 6.87072 23.2362 6.87398C23.0126 6.87724 22.792 6.92532 22.5874 7.01537C22.3827 7.10543 22.1982 7.23562 22.0448 7.39825C21.7465 7.71454 21.5831 8.13466 21.5895 8.56942C21.5958 9.00418 21.7713 9.41935 22.0788 9.72681C22.3862 10.0343 22.8014 10.2098 23.2362 10.2161C23.6709 10.2225 24.091 10.0591 24.4073 9.76075V9.76075Z" fill="#F5DCE0"/>
</svg>
