<svg width="14" height="14" viewBox="0 0 14 14" fill="none" xmlns="http://www.w3.org/2000/svg">
<path d="M6.96447 13.9289C10.8108 13.9289 13.9289 10.8108 13.9289 6.96447C13.9289 3.1181 10.8108 0 6.96447 0C3.1181 0 0 3.1181 0 6.96447C0 10.8108 3.1181 13.9289 6.96447 13.9289Z" fill="#E87D5B"/>
<path d="M6.96447 12.5077C10.0259 12.5077 12.5076 10.0259 12.5076 6.96453C12.5076 3.90314 10.0259 1.42139 6.96447 1.42139C3.90308 1.42139 1.42133 3.90314 1.42133 6.96453C1.42133 10.0259 3.90308 12.5077 6.96447 12.5077Z" fill="#0F0F0F"/>
<path d="M6.96446 10.8729C9.12314 10.8729 10.8731 9.12297 10.8731 6.96429C10.8731 4.80562 9.12314 3.05566 6.96446 3.05566C4.80578 3.05566 3.05583 4.80562 3.05583 6.96429C3.05583 9.12297 4.80578 10.8729 6.96446 10.8729Z" fill="#E87D5B"/>
<path d="M7 9.69223C8.48692 9.69223 9.69231 8.48685 9.69231 6.99993C9.69231 5.513 8.48692 4.30762 7 4.30762C5.51308 4.30762 4.30769 5.513 4.30769 6.99993C4.30769 8.48685 5.51308 9.69223 7 9.69223Z" fill="#0F0F0F"/>
<path d="M11.3706 6.04053H8.17259V7.81718H11.3706V6.04053Z" fill="#0F0F0F"/>
</svg>
