<svg width="30" height="30" viewBox="0 0 30 30" fill="none" xmlns="http://www.w3.org/2000/svg">
<path d="M15 2.49994C8.1 2.49994 2.5 8.09994 2.5 14.9999C2.5 21.8999 8.1 27.4999 15 27.4999H21.25V24.9999H15C9.575 24.9999 5 20.4249 5 14.9999C5 9.57494 9.575 4.99994 15 4.99994C20.425 4.99994 25 9.57494 25 14.9999V16.7874C25 17.7749 24.1125 18.7499 23.125 18.7499C22.1375 18.7499 21.25 17.7749 21.25 16.7874V14.9999C21.25 11.5499 18.45 8.74994 15 8.74994C11.55 8.74994 8.75 11.5499 8.75 14.9999C8.75 18.4499 11.55 21.2499 15 21.2499C16.725 21.2499 18.3 20.5499 19.425 19.4124C20.2375 20.5249 21.6375 21.2499 23.125 21.2499C25.5875 21.2499 27.5 19.2499 27.5 16.7874V14.9999C27.5 8.09994 21.9 2.49994 15 2.49994ZM15 18.7499C12.925 18.7499 11.25 17.0749 11.25 14.9999C11.25 12.9249 12.925 11.2499 15 11.2499C17.075 11.2499 18.75 12.9249 18.75 14.9999C18.75 17.0749 17.075 18.7499 15 18.7499Z" fill="#F5DCE0"/>
</svg>
