<svg width="37" height="37" viewBox="0 0 37 37" fill="none" xmlns="http://www.w3.org/2000/svg">
<path d="M13.727 25.4375H23.273C22.3171 30.4834 20.4024 33.9167 18.5 33.9167C16.6546 33.9167 14.8 30.6884 13.8164 25.8938L13.727 25.4406H23.273H13.727V25.4375ZM4.7267 25.439H11.362C11.9247 28.6488 12.8775 31.3806 14.1262 33.2908C10.2066 32.1275 6.90731 29.459 4.95024 25.8692L4.72516 25.439H4.7267ZM25.6363 25.439H32.2732C31.3239 27.319 30.0005 28.9852 28.3841 30.3354C26.7678 31.6856 24.8926 32.6913 22.8737 33.2908C24.0376 31.5055 24.9457 29.008 25.5176 26.0742L25.6348 25.439H32.2732H25.6348H25.6363ZM26.1019 15.4182H33.6098C34.1298 17.98 33.9935 20.6316 33.2136 23.1266H25.9616C26.1986 20.9026 26.2655 18.6637 26.162 16.4296L26.1004 15.4167H33.6083H26.1004L26.1019 15.4182ZM3.38853 15.4167H10.8965C10.7357 17.6859 10.7532 19.9643 10.9489 22.2308L11.0367 23.125H3.78628C3.00536 20.6303 2.86853 17.9785 3.38853 15.4167V15.4167ZM13.2197 15.4167H23.7802C23.9563 17.6881 23.9372 19.9704 23.7231 22.2386L23.6275 23.125H13.3724C13.1028 20.8166 13.0348 18.4892 13.1689 16.169L13.2197 15.4167H23.7802H13.2197ZM23.0402 3.97134L22.8721 3.70926C25.1637 4.38952 27.2664 5.59198 29.0148 7.22214C30.7632 8.85229 32.1097 10.8657 32.9485 13.1042H25.8691C25.382 9.37951 24.3953 6.17901 23.0371 3.97288L22.8706 3.7108L23.0371 3.97288L23.0402 3.97134ZM13.9397 3.7663L14.1278 3.70926C12.7696 5.79205 11.7598 8.84301 11.2233 12.4258L11.1292 13.1042H4.05145C4.87869 10.8968 6.19974 8.90791 7.91358 7.28947C9.62742 5.67102 11.6887 4.46591 13.9397 3.7663L14.1278 3.70926L13.9397 3.7663V3.7663ZM18.5 3.08643C20.5334 3.08643 22.5792 7.00534 23.4549 12.6186L23.5273 13.1042H13.4726C14.3066 7.23197 16.4079 3.08643 18.5 3.08643Z" fill="#F5DCE0"/>
</svg>
