<svg width="21" height="21" viewBox="0 0 21 21" fill="none" xmlns="http://www.w3.org/2000/svg">
<g clip-path="url(#clip0_254_49)">
<path fill-rule="evenodd" clip-rule="evenodd" d="M2.29688 0C1.68771 0 1.10349 0.241991 0.672739 0.672739C0.241991 1.10349 0 1.68771 0 2.29688L0 18.7031C0 19.971 1.029 21 2.29688 21H18.7031C19.3123 21 19.8965 20.758 20.3273 20.3273C20.758 19.8965 21 19.3123 21 18.7031V2.29688C21 1.68771 20.758 1.10349 20.3273 0.672739C19.8965 0.241991 19.3123 0 18.7031 0H2.29688ZM1.96875 2.29688C1.96875 2.20985 2.00332 2.12639 2.06486 2.06486C2.12639 2.00332 2.20985 1.96875 2.29688 1.96875H18.7031C18.7901 1.96875 18.8736 2.00332 18.9351 2.06486C18.9967 2.12639 19.0312 2.20985 19.0312 2.29688V18.7031C19.0312 18.7901 18.9967 18.8736 18.9351 18.9351C18.8736 18.9967 18.7901 19.0312 18.7031 19.0312H2.29688C2.20985 19.0312 2.12639 18.9967 2.06486 18.9351C2.00332 18.8736 1.96875 18.7901 1.96875 18.7031V2.29688ZM15.4219 3.9375C15.1608 3.9375 14.9104 4.04121 14.7258 4.22582C14.5412 4.41042 14.4375 4.6608 14.4375 4.92188V14.7656C14.4375 15.0267 14.5412 15.2771 14.7258 15.4617C14.9104 15.6463 15.1608 15.75 15.4219 15.75C15.6829 15.75 15.9333 15.6463 16.1179 15.4617C16.3025 15.2771 16.4062 15.0267 16.4062 14.7656V4.92188C16.4062 4.6608 16.3025 4.41042 16.1179 4.22582C15.9333 4.04121 15.6829 3.9375 15.4219 3.9375V3.9375ZM4.59375 4.92188C4.59375 4.6608 4.69746 4.41042 4.88207 4.22582C5.06667 4.04121 5.31705 3.9375 5.57812 3.9375C5.8392 3.9375 6.08958 4.04121 6.27418 4.22582C6.45879 4.41042 6.5625 4.6608 6.5625 4.92188V12.1406C6.5625 12.4017 6.45879 12.6521 6.27418 12.8367C6.08958 13.0213 5.8392 13.125 5.57812 13.125C5.31705 13.125 5.06667 13.0213 4.88207 12.8367C4.69746 12.6521 4.59375 12.4017 4.59375 12.1406V4.92188ZM10.5 3.9375C10.2389 3.9375 9.98855 4.04121 9.80394 4.22582C9.61934 4.41042 9.51563 4.6608 9.51562 4.92188V9.51562C9.51563 9.7767 9.61934 10.0271 9.80394 10.2117C9.98855 10.3963 10.2389 10.5 10.5 10.5C10.7611 10.5 11.0115 10.3963 11.1961 10.2117C11.3807 10.0271 11.4844 9.7767 11.4844 9.51562V4.92188C11.4844 4.6608 11.3807 4.41042 11.1961 4.22582C11.0115 4.04121 10.7611 3.9375 10.5 3.9375Z" fill="#F5DCE0"/>
</g>
<defs>
<clipPath id="clip0_254_49">
<rect width="21" height="21" fill="white"/>
</clipPath>
</defs>
</svg>
