<svg width="150" height="150" viewBox="0 0 150 150" fill="none" xmlns="http://www.w3.org/2000/svg">
<path d="M75 100C88.8071 100 100 88.8071 100 75C100 61.1929 88.8071 50 75 50C61.1929 50 50 61.1929 50 75C50 88.8071 61.1929 100 75 100Z" stroke="#E6E6E6" stroke-width="7.26" stroke-linecap="round" stroke-linejoin="round"/>
<path d="M100 49.9999V81.2499C100 86.2227 101.976 90.9919 105.492 94.5082C109.008 98.0245 113.777 99.9999 118.75 99.9999C123.723 99.9999 128.492 98.0245 132.008 94.5082C135.525 90.9919 137.5 86.2227 137.5 81.2499V74.9999C137.499 60.8938 132.726 47.2029 123.958 36.1532C115.19 25.1036 102.941 17.3451 89.2041 14.1393C75.4671 10.9335 61.0496 12.4689 48.296 18.496C35.5423 24.523 25.2025 34.6871 18.9579 47.3357C12.7133 59.9842 10.9311 74.3733 13.9011 88.1631C16.8711 101.953 24.4187 114.333 35.3165 123.289C46.2143 132.246 59.8215 137.252 73.9255 137.495C88.0295 137.737 101.801 133.201 113 124.625" stroke="#E6E6E6" stroke-width="7.26" stroke-linecap="round" stroke-linejoin="round"/>
</svg>
