<svg width="401" height="401" viewBox="0 0 401 401" fill="none" xmlns="http://www.w3.org/2000/svg">
<path d="M32.3112 46.2208L66.4737 329.008C67.6862 339.027 74.83 347.352 84.5987 350.127L194.193 381.233C198.624 382.49 203.318 382.521 207.768 381.315L323.03 350.09C333.117 347.358 340.461 338.733 341.499 328.396L369.93 45.977C370.674 38.5958 364.843 32.1958 357.374 32.1958H44.8362C37.2737 32.1958 31.405 38.7646 32.3112 46.2208Z" fill="#7BBEEB"/>
<path d="M357.374 32.1958H200.968V382.196C203.255 382.208 205.543 381.914 207.768 381.314L323.03 350.089C333.118 347.358 340.462 338.733 341.499 328.396L369.93 45.977C370.674 38.5958 364.843 32.1958 357.374 32.1958Z" fill="#ACE3FF"/>
<path d="M201.123 388.445C198.216 388.445 195.304 388.045 192.479 387.245L82.8852 356.139C70.6664 352.67 61.7852 342.32 60.2602 329.758L26.0977 46.9703C25.4539 41.6578 27.1289 36.3141 30.6789 32.3016C34.2664 28.2641 39.4227 25.9453 44.8414 25.9453H357.379C362.716 25.9453 367.829 28.2078 371.404 32.1641C374.948 36.0891 376.685 41.3516 376.154 46.6078L347.716 329.027C346.416 341.852 337.154 352.739 324.654 356.114L209.404 387.339C206.691 388.077 203.91 388.445 201.123 388.445ZM44.8414 38.4453C42.9727 38.4453 41.2664 39.2078 40.0414 40.5953C38.8414 41.9516 38.2977 43.6828 38.5164 45.4703L72.6789 328.258C73.5914 335.802 78.9414 342.027 86.3039 344.114L195.904 375.22C199.248 376.164 202.779 376.189 206.135 375.283L321.391 344.058C328.923 342.02 334.51 335.477 335.285 327.777L363.716 45.3516C363.891 43.5828 363.329 41.8766 362.135 40.5453C360.904 39.1891 359.21 38.4453 357.373 38.4453H44.8414Z" fill="#8D6C9F"/>
<path d="M44.7178 75.9454C41.2615 75.9454 38.4678 73.1517 38.4678 69.6954V57.1954C38.4678 53.7392 41.2615 50.9454 44.7178 50.9454C48.174 50.9454 50.9678 53.7392 50.9678 57.1954V69.6954C50.9678 73.1517 48.174 75.9454 44.7178 75.9454ZM75.9678 75.9454C72.5115 75.9454 69.7178 73.1517 69.7178 69.6954V57.1954C69.7178 53.7392 72.5115 50.9454 75.9678 50.9454C79.424 50.9454 82.2178 53.7392 82.2178 57.1954V69.6954C82.2178 73.1517 79.424 75.9454 75.9678 75.9454ZM107.218 75.9454C103.762 75.9454 100.968 73.1517 100.968 69.6954V57.1954C100.968 53.7392 103.762 50.9454 107.218 50.9454C110.674 50.9454 113.468 53.7392 113.468 57.1954V69.6954C113.468 73.1517 110.674 75.9454 107.218 75.9454ZM138.468 75.9454C135.012 75.9454 132.218 73.1517 132.218 69.6954V57.1954C132.218 53.7392 135.012 50.9454 138.468 50.9454C141.924 50.9454 144.718 53.7392 144.718 57.1954V69.6954C144.718 73.1517 141.924 75.9454 138.468 75.9454ZM169.718 75.9454C166.262 75.9454 163.468 73.1517 163.468 69.6954V57.1954C163.468 53.7392 166.262 50.9454 169.718 50.9454C173.174 50.9454 175.968 53.7392 175.968 57.1954V69.6954C175.968 73.1517 173.174 75.9454 169.718 75.9454ZM200.968 75.9454C197.512 75.9454 194.718 73.1517 194.718 69.6954V57.1954C194.718 53.7392 197.512 50.9454 200.968 50.9454C204.424 50.9454 207.218 53.7392 207.218 57.1954V69.6954C207.218 73.1517 204.424 75.9454 200.968 75.9454ZM232.218 75.9454C228.762 75.9454 225.968 73.1517 225.968 69.6954V57.1954C225.968 53.7392 228.762 50.9454 232.218 50.9454C235.674 50.9454 238.468 53.7392 238.468 57.1954V69.6954C238.468 73.1517 235.674 75.9454 232.218 75.9454ZM263.468 75.9454C260.012 75.9454 257.218 73.1517 257.218 69.6954V57.1954C257.218 53.7392 260.012 50.9454 263.468 50.9454C266.924 50.9454 269.718 53.7392 269.718 57.1954V69.6954C269.718 73.1517 266.924 75.9454 263.468 75.9454ZM294.718 75.9454C291.262 75.9454 288.468 73.1517 288.468 69.6954V57.1954C288.468 53.7392 291.262 50.9454 294.718 50.9454C298.174 50.9454 300.968 53.7392 300.968 57.1954V69.6954C300.968 73.1517 298.174 75.9454 294.718 75.9454ZM325.968 75.9454C322.512 75.9454 319.718 73.1517 319.718 69.6954V57.1954C319.718 53.7392 322.512 50.9454 325.968 50.9454C329.424 50.9454 332.218 53.7392 332.218 57.1954V69.6954C332.218 73.1517 329.424 75.9454 325.968 75.9454ZM357.218 75.9454C353.762 75.9454 350.968 73.1517 350.968 69.6954V57.1954C350.968 53.7392 353.762 50.9454 357.218 50.9454C360.674 50.9454 363.468 53.7392 363.468 57.1954V69.6954C363.468 73.1517 360.674 75.9454 357.218 75.9454ZM250.962 343.483C248.212 343.483 245.687 341.652 244.937 338.87C244.03 335.539 245.999 332.108 249.33 331.202L261.83 327.814C265.168 326.902 268.599 328.877 269.499 332.208C270.405 335.539 268.437 338.97 265.105 339.877L252.605 343.264C252.055 343.414 251.505 343.483 250.962 343.483ZM201.118 357.214L168.005 347.814C164.687 346.877 162.755 343.414 163.705 340.095C164.643 336.777 168.087 334.833 171.424 335.795L201.193 344.245L224.33 337.983C227.668 337.058 231.099 339.045 231.999 342.377C232.905 345.708 230.937 349.145 227.605 350.045L201.118 357.214Z" fill="#8D6C9F"/>
<path d="M97.8423 188.445L105.58 202.582L119.717 210.32L105.58 218.057L97.8423 232.195L90.1048 218.057L75.9673 210.32L90.1048 202.582L97.8423 188.445ZM297.855 294.695L303.33 304.757L313.467 310.332L303.33 315.807L297.855 325.945L292.28 315.807L282.217 310.332L292.28 304.757L297.855 294.695ZM329.117 144.695L332.436 150.707L338.467 154.057L332.43 157.364L329.117 163.445L325.755 157.364L319.717 154.057L325.755 150.707L329.117 144.695Z" fill="#FFF8F8"/>
<path d="M294.83 107.195H107.217C103.38 107.195 100.448 110.62 101.048 114.414L105.817 144.695H259.555L255.123 182.195H157.217V219.695H250.692L245.061 267.351L201.555 280.614L163.136 267.601L160.361 249.97C159.88 246.933 157.261 244.695 154.186 244.695H128.88C125.042 244.695 122.111 248.126 122.705 251.92L129.042 292.164C129.398 294.426 130.98 296.308 133.155 297.039L199.111 319.376C199.742 319.589 200.392 319.695 201.048 319.695C201.642 319.695 202.236 319.608 202.811 319.433L275.58 297.258C277.917 296.545 279.617 294.514 279.898 292.089L297.967 139.183L300.936 114.064C301.367 110.408 298.511 107.195 294.83 107.195Z" fill="#FAEFDE"/>
<path d="M201.054 325.946C199.735 325.946 198.423 325.733 197.154 325.308L131.154 302.958C126.773 301.483 123.598 297.721 122.873 293.146L116.529 252.89C115.96 249.277 116.998 245.608 119.373 242.827C121.754 240.046 125.216 238.452 128.879 238.452H154.191C160.385 238.452 165.579 242.896 166.541 249.015L168.729 262.902L201.666 274.052L239.348 262.571L243.66 225.946H157.216C153.76 225.946 150.966 223.152 150.966 219.696V182.196C150.966 178.74 153.76 175.946 157.216 175.946H249.566L252.523 150.946H105.81C102.735 150.946 100.116 148.708 99.6352 145.665L94.8664 115.377C94.2977 111.771 95.3352 108.102 97.7102 105.321C100.091 102.54 103.554 100.946 107.216 100.946H294.835C298.373 100.946 301.748 102.465 304.104 105.108C306.448 107.752 307.56 111.283 307.141 114.802L286.11 292.815C285.529 297.702 282.116 301.796 277.404 303.227L204.635 325.415C203.479 325.771 202.273 325.946 201.054 325.946ZM128.879 250.946L135.223 291.19L201.116 313.458L273.76 291.271L294.716 113.446H107.216L111.154 138.446H259.554C261.341 138.446 263.041 139.208 264.223 140.546C265.41 141.877 265.966 143.658 265.76 145.427L261.329 182.927C260.96 186.077 258.291 188.446 255.123 188.446H163.466V213.446H250.691C252.473 213.446 254.179 214.208 255.36 215.546C256.548 216.877 257.104 218.658 256.898 220.427L251.273 268.083C250.979 270.552 249.26 272.608 246.891 273.327L203.385 286.59C202.129 286.977 200.791 286.958 199.56 286.533L161.141 273.521C158.935 272.777 157.335 270.871 156.966 268.571L154.185 250.946H128.879Z" fill="#8D6C9F"/>
</svg>
