<svg width="400" height="400" viewBox="0 0 400 400" fill="none" xmlns="http://www.w3.org/2000/svg">
<path d="M264.425 269.219C301.306 269.219 331.204 239.321 331.204 202.44C331.204 165.559 301.306 135.662 264.425 135.662C227.545 135.662 197.647 165.559 197.647 202.44C197.647 239.321 227.545 269.219 264.425 269.219Z" fill="#79D5E3"/>
<path d="M133.067 390.749C97.5906 390.749 68.8379 362.3 68.8379 327.211C68.8379 292.122 97.5982 263.673 133.067 263.673L197.629 263.339V326.877C197.637 361.974 168.543 390.749 133.067 390.749Z" fill="#A0D2A1"/>
<path d="M133.025 135.132C97.5264 135.132 68.751 106.357 68.751 70.8581C68.751 35.3592 97.5264 6.58376 133.025 6.58376L197.633 6.24988V134.791L133.025 135.132Z" fill="#F2485D"/>
<path d="M133.025 263.673C97.5264 263.673 68.751 234.898 68.751 199.399C68.751 163.9 97.5264 135.125 133.025 135.125L197.634 134.791V263.332L133.025 263.673Z" fill="#BEACE5"/>
<path d="M266.977 6.59098L203.036 6.25708V134.798L266.977 135.132C302.475 135.132 331.251 106.357 331.251 70.8577C331.243 35.3664 302.468 6.59098 266.977 6.59098Z" fill="#F48E8F"/>
<path d="M264.425 269.219C301.306 269.219 331.204 239.321 331.204 202.44C331.204 165.559 301.306 135.662 264.425 135.662C227.545 135.662 197.647 165.559 197.647 202.44C197.647 239.321 227.545 269.219 264.425 269.219Z" stroke="#7D5D8E" stroke-width="11.2371" stroke-miterlimit="10"/>
<path d="M133.067 390.749C97.5906 390.749 68.8379 362.3 68.8379 327.211C68.8379 292.122 97.5982 263.673 133.067 263.673L197.629 263.339V326.877C197.637 361.974 168.543 390.749 133.067 390.749Z" stroke="#7D5D8E" stroke-width="11.2371" stroke-miterlimit="10"/>
<path d="M133.025 135.132C97.5264 135.132 68.751 106.357 68.751 70.8581C68.751 35.3592 97.5264 6.58376 133.025 6.58376L197.634 6.24988V134.791L133.025 135.132Z" stroke="#7D5D8E" stroke-width="11.2371" stroke-miterlimit="10"/>
<path d="M133.025 263.673C97.5264 263.673 68.751 234.898 68.751 199.399C68.751 163.9 97.5264 135.125 133.025 135.125L197.634 134.791V263.332L133.025 263.673Z" stroke="#7D5D8E" stroke-width="11.2371" stroke-miterlimit="10"/>
<path d="M203.036 6.25708L266.977 6.59098C302.475 6.59098 331.251 35.3664 331.251 70.8653C331.251 106.364 302.475 135.14 266.977 135.14L203.036 134.806" stroke="#7D5D8E" stroke-width="11.2371" stroke-miterlimit="10"/>
<path d="M102.339 88.6215C108.448 98.957 119.701 105.885 132.579 105.885" stroke="#8D6C9F" stroke-width="8.02648" stroke-miterlimit="10" stroke-linecap="round" stroke-linejoin="round"/>
<path d="M99.7504 58.337C98.2858 62.2072 97.4814 66.396 97.4814 70.7821" stroke="#8D6C9F" stroke-width="8.02648" stroke-miterlimit="10" stroke-linecap="round" stroke-linejoin="round"/>
<path d="M167.503 35.496L132.581 35.6781C122.67 35.6781 113.723 39.7835 107.341 46.3854" stroke="#8D6C9F" stroke-width="8.02648" stroke-miterlimit="10" stroke-linecap="round" stroke-linejoin="round"/>
<path d="M120.245 294.656C124.07 293.245 128.205 292.471 132.523 292.471" stroke="#7D5D8E" stroke-width="8.02648" stroke-miterlimit="10" stroke-linecap="round"/>
<path d="M103.545 346.631C99.72 341.076 97.4814 334.368 97.4814 327.144C97.4814 318.675 100.547 310.919 105.647 304.894" stroke="#8D6C9F" stroke-width="8.02648" stroke-miterlimit="10" stroke-linecap="round"/>
<path d="M132.521 361.8C126.777 361.8 121.351 360.434 116.562 358.005" stroke="#8D6C9F" stroke-width="8.02648" stroke-miterlimit="10" stroke-linecap="round"/>
<path d="M167.75 326.953C167.75 337.949 162.514 347.814 154.387 354.218" stroke="#8D6C9F" stroke-width="8.02648" stroke-miterlimit="10" stroke-linecap="round"/>
<path d="M241.702 233.046C232.467 226.125 226.487 215.092 226.487 202.662" stroke="#8D6C9F" stroke-width="8.02648" stroke-miterlimit="10" stroke-linecap="round" stroke-linejoin="round"/>
<path d="M299.412 187.948C301.316 192.47 302.371 197.448 302.371 202.669C302.371 223.621 285.38 240.611 264.429 240.611" stroke="#8D6C9F" stroke-width="8.02648" stroke-miterlimit="10" stroke-linecap="round" stroke-linejoin="round"/>
<path d="M264.429 164.719C272.29 164.719 279.59 167.109 285.646 171.199" stroke="#8D6C9F" stroke-width="8.02648" stroke-miterlimit="10" stroke-linecap="round" stroke-linejoin="round"/>
</svg>
