<svg width="150" height="150" viewBox="0 0 150 150" fill="none" xmlns="http://www.w3.org/2000/svg">
<path d="M93.7502 137.5V112.5C94.6252 104.688 92.3752 96.8127 87.5002 90.6252C106.25 90.6252 125 78.1252 125 56.2502C125.5 48.4377 123.313 40.7502 118.75 34.3752C120.5 27.1877 120.5 19.6877 118.75 12.5002C118.75 12.5002 112.5 12.5002 100 21.8752C83.5002 18.7502 66.5002 18.7502 50.0002 21.8752C37.5002 12.5002 31.2502 12.5002 31.2502 12.5002C29.3752 19.6877 29.3752 27.1877 31.2502 34.3752C26.6877 40.7502 24.5002 48.4377 25.0002 56.2502C25.0002 78.1252 43.7502 90.6252 62.5002 90.6252C60.0627 93.6877 58.2502 97.1877 57.1877 100.938C56.1252 104.688 55.8127 108.625 56.2502 112.5V137.5" stroke="white" stroke-width="7.26129" stroke-linecap="round" stroke-linejoin="round"/>
<path d="M56.2495 112.5C28.062 125 24.9995 99.9999 12.4995 99.9999" stroke="white" stroke-width="7.26129" stroke-linecap="round" stroke-linejoin="round"/>
</svg>
