<svg width="401" height="401" viewBox="0 0 401 401" fill="none" xmlns="http://www.w3.org/2000/svg">
<path d="M31.7956 46.2208L65.9581 329.008C67.1706 339.027 74.3144 347.352 84.0831 350.127L193.677 381.233C198.108 382.49 202.802 382.521 207.252 381.315L322.514 350.09C332.602 347.358 339.946 338.733 340.983 328.396L369.414 45.977C370.158 38.5958 364.327 32.1958 356.858 32.1958H44.3206C36.7581 32.1958 30.8894 38.7646 31.7956 46.2208Z" fill="#F6D397"/>
<path d="M356.858 32.1958H200.452V382.196C202.739 382.208 205.027 381.914 207.252 381.314L322.514 350.089C332.602 347.358 339.945 338.733 340.983 328.396L369.414 45.977C370.158 38.5958 364.327 32.1958 356.858 32.1958Z" fill="#F9E3AE"/>
<path d="M200.608 388.445C197.701 388.445 194.789 388.045 191.964 387.245L82.37 356.139C70.1513 352.67 61.27 342.32 59.745 329.758L25.5825 46.9703C24.9388 41.6578 26.6138 36.3141 30.1638 32.3016C33.7513 28.2641 38.9075 25.9453 44.3263 25.9453H356.864C362.201 25.9453 367.314 28.2078 370.889 32.1641C374.433 36.0891 376.17 41.3516 375.639 46.6078L347.201 329.027C345.901 341.852 336.639 352.739 324.139 356.114L208.889 387.339C206.176 388.077 203.395 388.445 200.608 388.445ZM44.3263 38.4453C42.4575 38.4453 40.7513 39.2078 39.5263 40.5953C38.3263 41.9516 37.7825 43.6828 38.0013 45.4703L72.1638 328.258C73.0763 335.802 78.4263 342.027 85.7888 344.114L195.389 375.22C198.733 376.164 202.264 376.189 205.62 375.283L320.876 344.058C328.408 342.02 333.995 335.477 334.77 327.777L363.201 45.3516C363.376 43.5828 362.814 41.8766 361.62 40.5453C360.389 39.1891 358.695 38.4453 356.858 38.4453H44.3263Z" fill="#8D6C9F"/>
<path d="M44.2017 75.9454C40.7454 75.9454 37.9517 73.1517 37.9517 69.6954V57.1954C37.9517 53.7392 40.7454 50.9454 44.2017 50.9454C47.6579 50.9454 50.4517 53.7392 50.4517 57.1954V69.6954C50.4517 73.1517 47.6579 75.9454 44.2017 75.9454ZM75.4517 75.9454C71.9954 75.9454 69.2017 73.1517 69.2017 69.6954V57.1954C69.2017 53.7392 71.9954 50.9454 75.4517 50.9454C78.9079 50.9454 81.7017 53.7392 81.7017 57.1954V69.6954C81.7017 73.1517 78.9079 75.9454 75.4517 75.9454ZM106.702 75.9454C103.245 75.9454 100.452 73.1517 100.452 69.6954V57.1954C100.452 53.7392 103.245 50.9454 106.702 50.9454C110.158 50.9454 112.952 53.7392 112.952 57.1954V69.6954C112.952 73.1517 110.158 75.9454 106.702 75.9454ZM137.952 75.9454C134.495 75.9454 131.702 73.1517 131.702 69.6954V57.1954C131.702 53.7392 134.495 50.9454 137.952 50.9454C141.408 50.9454 144.202 53.7392 144.202 57.1954V69.6954C144.202 73.1517 141.408 75.9454 137.952 75.9454ZM169.202 75.9454C165.745 75.9454 162.952 73.1517 162.952 69.6954V57.1954C162.952 53.7392 165.745 50.9454 169.202 50.9454C172.658 50.9454 175.452 53.7392 175.452 57.1954V69.6954C175.452 73.1517 172.658 75.9454 169.202 75.9454ZM200.452 75.9454C196.995 75.9454 194.202 73.1517 194.202 69.6954V57.1954C194.202 53.7392 196.995 50.9454 200.452 50.9454C203.908 50.9454 206.702 53.7392 206.702 57.1954V69.6954C206.702 73.1517 203.908 75.9454 200.452 75.9454ZM231.702 75.9454C228.245 75.9454 225.452 73.1517 225.452 69.6954V57.1954C225.452 53.7392 228.245 50.9454 231.702 50.9454C235.158 50.9454 237.952 53.7392 237.952 57.1954V69.6954C237.952 73.1517 235.158 75.9454 231.702 75.9454ZM262.952 75.9454C259.495 75.9454 256.702 73.1517 256.702 69.6954V57.1954C256.702 53.7392 259.495 50.9454 262.952 50.9454C266.408 50.9454 269.202 53.7392 269.202 57.1954V69.6954C269.202 73.1517 266.408 75.9454 262.952 75.9454ZM294.202 75.9454C290.745 75.9454 287.952 73.1517 287.952 69.6954V57.1954C287.952 53.7392 290.745 50.9454 294.202 50.9454C297.658 50.9454 300.452 53.7392 300.452 57.1954V69.6954C300.452 73.1517 297.658 75.9454 294.202 75.9454ZM325.452 75.9454C321.995 75.9454 319.202 73.1517 319.202 69.6954V57.1954C319.202 53.7392 321.995 50.9454 325.452 50.9454C328.908 50.9454 331.702 53.7392 331.702 57.1954V69.6954C331.702 73.1517 328.908 75.9454 325.452 75.9454ZM356.702 75.9454C353.245 75.9454 350.452 73.1517 350.452 69.6954V57.1954C350.452 53.7392 353.245 50.9454 356.702 50.9454C360.158 50.9454 362.952 53.7392 362.952 57.1954V69.6954C362.952 73.1517 360.158 75.9454 356.702 75.9454Z" fill="#8D6C9F"/>
<path d="M294.315 107.195H106.702C102.865 107.195 99.9337 110.62 100.534 114.414L116.284 214.42C116.765 217.458 119.384 219.695 122.459 219.695H243.146C246.89 219.695 249.79 222.964 249.352 226.676L244.546 267.351L201.04 280.614L162.621 267.601L159.846 249.97C159.365 246.933 156.746 244.695 153.671 244.695H128.365C124.527 244.695 121.596 248.126 122.19 251.92L128.527 292.164C128.884 294.426 130.465 296.308 132.64 297.039L198.596 319.376C199.227 319.589 199.877 319.695 200.534 319.695C201.127 319.695 201.721 319.608 202.296 319.433L275.065 297.258C277.402 296.545 279.102 294.514 279.384 292.089L291.54 189.183C291.984 185.464 289.084 182.195 285.34 182.195H154.515C151.44 182.195 148.821 179.958 148.34 176.92L144.402 151.92C143.802 148.126 146.734 144.695 150.577 144.695H291.246C294.415 144.695 297.084 142.326 297.452 139.176L300.421 114.058C300.852 110.408 297.996 107.195 294.315 107.195Z" fill="#FAEFDE"/>
<path d="M200.538 325.946C199.22 325.946 197.907 325.733 196.638 325.308L130.638 302.958C126.257 301.483 123.082 297.721 122.357 293.146L116.013 252.89C115.445 249.277 116.482 245.608 118.857 242.827C121.238 240.046 124.701 238.452 128.363 238.452H153.676C159.87 238.452 165.063 242.896 166.026 249.015L168.213 262.902L201.151 274.052L238.832 262.571L243.145 225.946H122.457C116.263 225.946 111.07 221.502 110.107 215.383L94.3508 115.383C93.7821 111.777 94.8196 108.108 97.1946 105.327C99.5758 102.54 103.038 100.946 106.701 100.946H294.32C297.851 100.946 301.226 102.458 303.576 105.102C305.926 107.74 307.038 111.271 306.626 114.79L303.657 139.915C302.92 146.202 297.582 150.946 291.245 150.946H150.576L154.52 175.946H285.345C288.913 175.946 292.32 177.477 294.688 180.146C297.057 182.808 298.182 186.371 297.757 189.915L285.601 292.821C285.02 297.721 281.601 301.808 276.882 303.24L204.126 325.421C202.963 325.771 201.757 325.946 200.538 325.946ZM128.363 250.946L134.707 291.19L200.601 313.458L273.245 291.271L285.338 188.446H154.507C148.313 188.446 143.12 184.002 142.157 177.883L138.22 152.89C137.651 149.277 138.688 145.608 141.063 142.827C143.445 140.046 146.907 138.452 150.57 138.452H291.245L294.201 113.446H106.701L122.457 213.446H243.145C246.713 213.446 250.12 214.977 252.488 217.646C254.857 220.308 255.982 223.871 255.557 227.415L250.751 268.09C250.457 270.558 248.738 272.615 246.37 273.333L202.863 286.596C201.607 286.983 200.27 286.965 199.038 286.54L160.62 273.527C158.413 272.783 156.813 270.877 156.445 268.577L153.67 250.946H128.363ZM250.445 343.483C247.695 343.483 245.17 341.652 244.42 338.871C243.513 335.54 245.482 332.108 248.813 331.202L261.313 327.815C264.651 326.902 268.082 328.877 268.982 332.208C269.888 335.54 267.92 338.971 264.588 339.877L252.088 343.265C251.538 343.415 250.988 343.483 250.445 343.483ZM200.601 357.215L167.488 347.815C164.17 346.877 162.238 343.415 163.188 340.096C164.126 336.777 167.57 334.833 170.907 335.796L200.676 344.246L223.813 337.983C227.151 337.058 230.582 339.046 231.482 342.377C232.388 345.708 230.42 349.146 227.088 350.046L200.601 357.215Z" fill="#8D6C9F"/>
<path d="M316.077 144.695L323.815 158.832L337.952 166.57L323.815 174.307L316.077 188.445L308.34 174.307L294.202 166.57L308.34 158.832L316.077 144.695ZM297.34 294.695L302.815 304.757L312.952 310.332L302.815 315.807L297.34 325.945L291.765 315.807L281.702 310.332L291.765 304.757L297.34 294.695ZM78.5646 219.695L81.8709 225.707L87.8834 229.057L81.8709 232.364L78.5646 238.445L75.2146 232.364L69.2021 229.057L75.2146 225.707L78.5646 219.695Z" fill="#FAEFDE"/>
</svg>
