<svg width="150" height="150" viewBox="0 0 150 150" fill="none" xmlns="http://www.w3.org/2000/svg">
<path d="M106.249 12.5H43.7495C26.4906 12.5 12.4995 26.4911 12.4995 43.75V106.25C12.4995 123.509 26.4906 137.5 43.7495 137.5H106.249C123.508 137.5 137.499 123.509 137.499 106.25V43.75C137.499 26.4911 123.508 12.5 106.249 12.5Z" stroke="white" stroke-width="7.26129" stroke-linecap="round" stroke-linejoin="round"/>
<path d="M97.8029 69.4063C98.5742 74.6078 97.6857 79.9201 95.2639 84.5876C92.842 89.2551 89.01 93.0401 84.313 95.4043C79.616 97.7684 74.2932 98.5913 69.1015 97.7559C63.9099 96.9205 59.1139 94.4693 55.3956 90.7511C51.6773 87.0328 49.2262 82.2368 48.3908 77.0451C47.5554 71.8535 48.3783 66.5306 50.7424 61.8336C53.1065 57.1366 56.8915 53.3047 61.559 50.8828C66.2265 48.4609 71.5388 47.5725 76.7404 48.3438C82.0461 49.1306 86.9582 51.6029 90.7509 55.3957C94.5437 59.1885 97.0161 64.1005 97.8029 69.4063Z" stroke="white" stroke-width="7.26129" stroke-linecap="round" stroke-linejoin="round"/>
<path d="M109.375 40.6248H109.428" stroke="white" stroke-width="7.26129" stroke-linecap="round" stroke-linejoin="round"/>
</svg>
