<svg width="401" height="401" viewBox="0 0 401 401" fill="none" xmlns="http://www.w3.org/2000/svg">
<path d="M31.8908 46.2208L66.0533 329.008C67.2658 339.027 74.4096 347.352 84.1783 350.127L193.772 381.233C198.203 382.49 202.897 382.521 207.347 381.315L322.61 350.09C332.697 347.358 340.041 338.733 341.078 328.396L369.51 45.9771C370.253 38.5958 364.422 32.1958 356.953 32.1958H44.4158C36.8533 32.1958 30.9846 38.7646 31.8908 46.2208Z" fill="#F6D397"/>
<path d="M327.778 63.4458H200.547V350.946C202.409 350.958 204.266 350.702 206.078 350.177L299.841 322.858C308.047 320.471 314.022 312.921 314.866 303.877L337.997 75.5083C338.597 69.0458 333.853 63.4458 327.778 63.4458Z" fill="#F9E3AE"/>
<path d="M200.703 388.445C197.797 388.445 194.89 388.045 192.065 387.251L82.4652 356.139C70.2402 352.664 61.359 342.308 59.8465 329.758L25.6777 46.9703C25.034 41.6578 26.709 36.3141 30.259 32.3016C33.8465 28.2641 39.0027 25.9453 44.4152 25.9453H356.959C362.297 25.9453 367.409 28.2141 370.984 32.1641C374.528 36.0891 376.265 41.3516 375.734 46.6078L347.297 329.02C346.009 341.839 336.747 352.733 324.247 356.12L208.984 387.345C206.271 388.077 203.49 388.445 200.703 388.445ZM44.4152 38.4453C42.5527 38.4453 40.8527 39.2078 39.6215 40.5953C38.4215 41.9516 37.8777 43.6828 38.0965 45.4703L72.2652 328.258C73.1777 335.795 78.5215 342.02 85.8902 344.114L195.484 375.22C198.815 376.17 202.378 376.189 205.715 375.277L320.978 344.052C328.509 342.014 334.09 335.464 334.865 327.77L363.297 45.3516C363.472 43.5766 362.909 41.8703 361.715 40.5453C360.484 39.1891 358.79 38.4453 356.953 38.4453H44.4152Z" fill="#8D6C9F"/>
<path d="M356.797 75.9454C353.341 75.9454 350.547 73.1454 350.547 69.6954V57.1954C350.547 53.7454 353.341 50.9454 356.797 50.9454C360.253 50.9454 363.047 53.7454 363.047 57.1954V69.6954C363.047 73.1454 360.253 75.9454 356.797 75.9454ZM325.547 75.9454C322.091 75.9454 319.297 73.1454 319.297 69.6954V57.1954C319.297 53.7454 322.091 50.9454 325.547 50.9454C329.003 50.9454 331.797 53.7454 331.797 57.1954V69.6954C331.797 73.1454 329.003 75.9454 325.547 75.9454ZM294.297 75.9454C290.841 75.9454 288.047 73.1454 288.047 69.6954V57.1954C288.047 53.7454 290.841 50.9454 294.297 50.9454C297.753 50.9454 300.547 53.7454 300.547 57.1954V69.6954C300.547 73.1454 297.753 75.9454 294.297 75.9454ZM263.047 75.9454C259.591 75.9454 256.797 73.1454 256.797 69.6954V57.1954C256.797 53.7454 259.591 50.9454 263.047 50.9454C266.503 50.9454 269.297 53.7454 269.297 57.1954V69.6954C269.297 73.1454 266.503 75.9454 263.047 75.9454ZM231.797 75.9454C228.341 75.9454 225.547 73.1454 225.547 69.6954V57.1954C225.547 53.7454 228.341 50.9454 231.797 50.9454C235.253 50.9454 238.047 53.7454 238.047 57.1954V69.6954C238.047 73.1454 235.253 75.9454 231.797 75.9454ZM200.547 75.9454C197.091 75.9454 194.297 73.1454 194.297 69.6954V57.1954C194.297 53.7454 197.091 50.9454 200.547 50.9454C204.003 50.9454 206.797 53.7454 206.797 57.1954V69.6954C206.797 73.1454 204.003 75.9454 200.547 75.9454ZM169.297 75.9454C165.841 75.9454 163.047 73.1454 163.047 69.6954V57.1954C163.047 53.7454 165.841 50.9454 169.297 50.9454C172.753 50.9454 175.547 53.7454 175.547 57.1954V69.6954C175.547 73.1454 172.753 75.9454 169.297 75.9454ZM138.047 75.9454C134.591 75.9454 131.797 73.1454 131.797 69.6954V57.1954C131.797 53.7454 134.591 50.9454 138.047 50.9454C141.503 50.9454 144.297 53.7454 144.297 57.1954V69.6954C144.297 73.1454 141.503 75.9454 138.047 75.9454ZM106.797 75.9454C103.341 75.9454 100.547 73.1454 100.547 69.6954V57.1954C100.547 53.7454 103.341 50.9454 106.797 50.9454C110.253 50.9454 113.047 53.7454 113.047 57.1954V69.6954C113.047 73.1454 110.253 75.9454 106.797 75.9454ZM75.5469 75.9454C72.0906 75.9454 69.2969 73.1454 69.2969 69.6954V57.1954C69.2969 53.7454 72.0906 50.9454 75.5469 50.9454C79.0031 50.9454 81.7969 53.7454 81.7969 57.1954V69.6954C81.7969 73.1454 79.0031 75.9454 75.5469 75.9454ZM44.2969 75.9454C40.8406 75.9454 38.0469 73.1454 38.0469 69.6954V57.1954C38.0469 53.7454 40.8406 50.9454 44.2969 50.9454C47.7531 50.9454 50.5469 53.7454 50.5469 57.1954V69.6954C50.5469 73.1454 47.7531 75.9454 44.2969 75.9454Z" fill="#8D6C9F"/>
<path d="M150.547 119.695C150.547 171.777 150.547 223.864 150.547 275.945C131.797 271.777 113.047 267.614 94.2969 263.445C95.5781 275.945 96.8594 288.445 98.1406 300.945C126.028 308.895 153.909 316.839 181.797 324.789V119.695C171.378 119.695 160.966 119.695 150.547 119.695Z" fill="#FAEFDE"/>
<path d="M311.928 151.245L314.646 119.695C282.865 119.695 251.078 119.695 219.296 119.695C219.296 165.527 219.296 211.364 219.296 257.195C237.934 252.889 256.571 248.583 275.209 244.283L273.234 273.864C255.259 278.72 237.278 283.583 219.296 288.445C219.296 300.945 219.296 313.445 219.296 325.945C245.821 318.327 272.346 310.714 298.871 303.095L307.184 206.464C288.309 208.789 269.428 211.12 250.546 213.445C250.546 192.614 250.546 171.777 250.546 150.945C271.009 151.045 291.465 151.145 311.928 151.245Z" fill="#FAEFDE"/>
<path d="M181.796 331.039C181.221 331.039 180.646 330.958 180.084 330.802L96.4276 306.958C93.9651 306.258 92.1839 304.127 91.9214 301.583L88.0776 264.083C87.8776 262.083 88.6464 260.108 90.1401 258.777C91.6464 257.439 93.6839 256.908 95.6526 257.346L144.296 268.152V119.696C144.296 116.246 147.09 113.446 150.546 113.446H181.796C185.253 113.446 188.046 116.246 188.046 119.696V324.789C188.046 326.746 187.128 328.596 185.565 329.777C184.465 330.608 183.14 331.039 181.796 331.039ZM103.928 296.096L175.546 316.508V125.946H156.796V275.946C156.796 277.839 155.934 279.633 154.459 280.821C152.978 282.008 151.046 282.458 149.19 282.046L101.396 271.427L103.928 296.096Z" fill="#8D6C9F"/>
<path d="M219.297 332.196C217.953 332.196 216.634 331.764 215.534 330.939C213.966 329.758 213.047 327.908 213.047 325.946V288.446C213.047 285.621 214.941 283.146 217.666 282.414L267.291 268.996L268.409 252.264L220.697 263.283C218.866 263.727 216.903 263.277 215.403 262.089C213.903 260.902 213.047 259.102 213.047 257.196V119.696C213.047 116.246 215.841 113.446 219.297 113.446H314.653C316.403 113.446 318.078 114.183 319.259 115.471C320.441 116.764 321.028 118.489 320.878 120.233L318.153 151.783C317.878 155.027 314.897 157.696 311.897 157.496L256.797 157.227V206.377L306.422 200.258C308.272 200.033 310.166 200.652 311.522 201.958C312.878 203.264 313.572 205.114 313.409 206.996L305.097 303.627C304.878 306.208 303.084 308.383 300.597 309.096L221.022 331.939C220.459 332.114 219.878 332.196 219.297 332.196ZM225.547 293.233V317.652L293.016 298.277L300.297 213.614L251.309 219.652C249.553 219.864 247.753 219.314 246.409 218.127C245.066 216.939 244.297 215.239 244.297 213.446V150.946C244.297 149.283 244.959 147.689 246.141 146.514C247.322 145.339 248.722 144.727 250.578 144.696L306.197 144.971L307.841 125.946H225.547V249.339L273.809 238.196C275.728 237.739 277.759 238.239 279.266 239.527C280.772 240.808 281.578 242.727 281.453 244.702L279.478 274.283C279.303 276.946 277.447 279.202 274.872 279.896L225.547 293.233Z" fill="#8D6C9F"/>
</svg>
