<svg width="401" height="401" viewBox="0 0 401 401" fill="none" xmlns="http://www.w3.org/2000/svg">
<path d="M318.814 44.6949H81.3135C60.626 44.6949 43.8135 61.5074 43.8135 82.195V319.695C43.8135 340.382 60.626 357.195 81.3135 357.195H318.814C339.501 357.195 356.314 340.382 356.314 319.695V82.195C356.314 61.5074 339.501 44.6949 318.814 44.6949ZM286.814 325.945C269.564 325.945 256.501 319.007 248.063 305.382L259.063 297.82C264.313 305.632 272.188 314.07 286.188 314.07C302.251 314.07 309.439 304.132 309.439 294.257C309.439 280.195 298.751 275.382 287.376 270.32L280.689 267.382C259.876 258.32 252.126 248.632 252.126 231.695C252.126 213.757 265.439 201.695 285.251 201.695C298.751 201.695 307.938 205.882 314.876 215.57L304.314 222.507C299.313 216.07 293.251 213.132 285.251 213.132C274.189 213.132 266.126 220.695 266.126 231.132C266.126 243.632 274.876 248.445 286.376 253.57L293.126 256.507C317.314 267.132 325.064 276.195 325.064 293.945C325.064 317.507 305.314 325.945 286.814 325.945ZM170.501 325.945C153.876 325.945 140.626 316.382 133.501 305.632L146.126 298.132C152.063 305.695 159.813 309.632 168.813 309.632C182.813 309.632 189.626 301.882 189.626 285.945V201.695H206.313V290.32C206.313 319.757 186.876 325.945 170.501 325.945Z" fill="#F6D397"/>
<path d="M68.8135 44.6949H331.314C345.12 44.6949 356.314 55.8887 356.314 69.6949C356.314 80.0512 347.92 88.4449 337.564 88.4449H62.5635C52.2072 88.4449 43.8135 80.0512 43.8135 69.6949C43.8135 55.8887 55.0072 44.6949 68.8135 44.6949Z" fill="#F9E3AE"/>
<path d="M321.463 363.445H78.6697C56.0072 363.445 37.5635 345.001 37.5635 322.339V79.5513C37.5635 56.8888 56.0072 38.4451 78.6697 38.4451H321.463C344.126 38.4451 362.563 56.8826 362.563 79.5451V322.351C362.563 345.008 344.126 363.445 321.463 363.445ZM78.6697 50.9451C62.8947 50.9451 50.0635 63.7763 50.0635 79.5513V322.339C50.0635 338.114 62.8947 350.945 78.6697 350.945H321.463C337.232 350.945 350.063 338.114 350.063 322.345V79.5451C350.063 63.7763 337.232 50.9451 321.463 50.9451H78.6697Z" fill="#8D6C9F"/>
<path d="M298.126 245.07L291.438 242.133C279.688 236.945 278.626 235.07 278.626 231.133C278.626 227.695 281.126 225.633 285.251 225.633C289.876 225.633 293.126 227.008 297.063 234.133C297.876 235.695 299.313 236.82 301.001 237.195C302.688 237.633 304.501 237.32 305.938 236.383L326.876 222.633C329.626 220.82 330.501 217.258 328.876 214.383C319.313 197.195 305.438 189.195 285.251 189.195C258.813 189.195 239.626 207.07 239.626 231.695C239.626 259.383 257.876 271.07 275.626 278.82L282.313 281.758C295.501 287.633 296.938 289.508 296.938 294.258C296.938 300.32 291.063 301.57 286.188 301.57C276.501 301.57 271.813 295.008 266.313 285.82C265.438 284.32 263.938 283.258 262.251 282.883C260.626 282.508 258.813 282.883 257.438 283.82L236.313 298.258C233.751 300.008 232.813 303.383 234.188 306.195C244.688 327.258 262.876 338.445 286.813 338.445C317.626 338.445 337.563 320.945 337.563 293.945C337.563 267.633 322.438 255.695 298.126 245.07ZM286.813 325.945C269.563 325.945 256.501 319.008 248.063 305.383L259.063 297.82C264.313 305.633 272.188 314.07 286.188 314.07C302.251 314.07 309.438 304.133 309.438 294.258C309.438 280.195 298.751 275.383 287.376 270.32L280.688 267.383C259.876 258.32 252.126 248.633 252.126 231.695C252.126 213.758 265.438 201.695 285.251 201.695C298.751 201.695 307.938 205.883 314.876 215.57L304.313 222.508C299.313 216.07 293.251 213.133 285.251 213.133C274.188 213.133 266.126 220.695 266.126 231.133C266.126 243.633 274.876 248.445 286.376 253.57L293.126 256.508C317.313 267.133 325.063 276.195 325.063 293.945C325.063 317.508 305.313 325.945 286.813 325.945Z" fill="#8D6C9F"/>
<path d="M325.064 293.945C325.064 317.507 305.314 325.945 286.814 325.945C269.564 325.945 256.502 319.007 248.064 305.382L259.064 297.82C264.314 305.632 272.189 314.07 286.189 314.07C302.252 314.07 309.439 304.132 309.439 294.257C309.439 280.195 298.752 275.382 287.377 270.32L280.689 267.382C259.877 258.32 252.127 248.632 252.127 231.695C252.127 213.757 265.439 201.695 285.252 201.695C298.752 201.695 307.939 205.882 314.877 215.57L304.314 222.507C299.314 216.07 293.252 213.132 285.252 213.132C274.189 213.132 266.127 220.695 266.127 231.132C266.127 243.632 274.877 248.445 286.377 253.57L293.127 256.507C317.314 267.132 325.064 276.195 325.064 293.945Z" fill="#A183B5"/>
<path d="M212.565 189.195H183.377C179.94 189.195 177.127 192.008 177.127 195.445V285.945C177.127 297.133 173.815 297.133 168.815 297.133C162.565 297.133 157.377 293.633 153.44 286.633C152.565 285.133 151.19 284.07 149.565 283.633C147.94 283.258 146.19 283.508 144.752 284.32L121.877 298.008C119.065 299.695 118.065 303.195 119.44 306.07C126.565 321.008 144.252 338.445 170.502 338.445C200.752 338.445 218.815 320.445 218.815 290.32V195.445C218.815 192.008 216.002 189.195 212.565 189.195ZM206.315 290.32C206.315 319.758 186.877 325.945 170.502 325.945C153.877 325.945 140.627 316.383 133.502 305.633L146.127 298.133C152.065 305.695 159.815 309.633 168.815 309.633C182.815 309.633 189.627 301.883 189.627 285.945V201.695H206.315V290.32Z" fill="#8D6C9F"/>
<path d="M206.314 201.695V290.32C206.314 319.757 186.876 325.945 170.501 325.945C153.876 325.945 140.626 316.382 133.501 305.632L146.126 298.132C152.064 305.695 159.814 309.632 168.814 309.632C182.814 309.632 189.626 301.882 189.626 285.945V201.695H206.314Z" fill="#A183B5"/>
<path d="M106.314 75.9451C102.864 75.9451 100.064 78.7451 100.064 82.1951V94.6951C100.064 98.1451 102.864 100.945 106.314 100.945C109.764 100.945 112.564 98.1451 112.564 94.6951V82.1951C112.564 78.7451 109.764 75.9451 106.314 75.9451ZM75.064 75.9451C71.614 75.9451 68.814 78.7451 68.814 82.1951V94.6951C68.814 98.1451 71.614 100.945 75.064 100.945C78.514 100.945 81.314 98.1451 81.314 94.6951V82.1951C81.314 78.7451 78.514 75.9451 75.064 75.9451ZM200.064 75.9451C196.614 75.9451 193.814 78.7451 193.814 82.1951V94.6951C193.814 98.1451 196.614 100.945 200.064 100.945C203.514 100.945 206.314 98.1451 206.314 94.6951V82.1951C206.314 78.7451 203.514 75.9451 200.064 75.9451ZM231.314 75.9451C227.864 75.9451 225.064 78.7451 225.064 82.1951V94.6951C225.064 98.1451 227.864 100.945 231.314 100.945C234.764 100.945 237.564 98.1451 237.564 94.6951V82.1951C237.564 78.7451 234.764 75.9451 231.314 75.9451ZM262.564 75.9451C259.114 75.9451 256.314 78.7451 256.314 82.1951V94.6951C256.314 98.1451 259.114 100.945 262.564 100.945C266.014 100.945 268.814 98.1451 268.814 94.6951V82.1951C268.814 78.7451 266.014 75.9451 262.564 75.9451ZM293.814 75.9451C290.364 75.9451 287.564 78.7451 287.564 82.1951V94.6951C287.564 98.1451 290.364 100.945 293.814 100.945C297.264 100.945 300.064 98.1451 300.064 94.6951V82.1951C300.064 78.7451 297.264 75.9451 293.814 75.9451ZM325.064 75.9451C321.614 75.9451 318.814 78.7451 318.814 82.1951V94.6951C318.814 98.1451 321.614 100.945 325.064 100.945C328.514 100.945 331.314 98.1451 331.314 94.6951V82.1951C331.314 78.7451 328.514 75.9451 325.064 75.9451ZM137.564 75.9451C134.114 75.9451 131.314 78.7451 131.314 82.1951V94.6951C131.314 98.1451 134.114 100.945 137.564 100.945C141.014 100.945 143.814 98.1451 143.814 94.6951V82.1951C143.814 78.7451 141.014 75.9451 137.564 75.9451ZM168.814 75.9451C165.364 75.9451 162.564 78.7451 162.564 82.1951V94.6951C162.564 98.1451 165.364 100.945 168.814 100.945C172.264 100.945 175.064 98.1451 175.064 94.6951V82.1951C175.064 78.7451 172.264 75.9451 168.814 75.9451Z" fill="#8D6C9F"/>
</svg>
