<svg width="401" height="401" viewBox="0 0 401 401" fill="none" xmlns="http://www.w3.org/2000/svg">
<path d="M200.517 25.6228C138.473 25.6228 119.267 55.0541 119.267 74.1478V106.873H200.517V131.873H74.0416C49.3791 131.873 25.5166 149.717 25.5166 200.623C25.5166 251.529 49.3791 269.373 74.0416 269.373H120.973V232.442C120.973 214.942 135.292 200.623 152.792 200.623H248.248C265.748 200.623 281.773 186.304 281.773 168.804V74.1478C281.767 54.2603 262.56 25.6228 200.517 25.6228Z" fill="#85CBF8"/>
<path d="M200.516 375.623C262.56 375.623 280.06 346.191 280.06 327.098V294.373H200.516V269.373H326.991C351.654 269.373 375.516 251.529 375.516 200.623C375.516 149.716 351.654 131.873 326.991 131.873H281.766V168.804C281.766 186.304 265.741 200.623 248.241 200.623H152.791C135.291 200.623 119.266 214.941 119.266 232.441V327.098C119.266 346.191 138.472 375.623 200.516 375.623Z" fill="#F9DD8F"/>
<path d="M166.142 56.8728C161.998 56.8728 158.023 58.519 155.093 61.4493C152.163 64.3795 150.517 68.3538 150.517 72.4978C150.517 76.6418 152.163 80.6161 155.093 83.5463C158.023 86.4766 161.998 88.1228 166.142 88.1228C170.286 88.1228 174.26 86.4766 177.19 83.5463C180.12 80.6161 181.767 76.6418 181.767 72.4978C181.767 68.3538 180.12 64.3795 177.19 61.4493C174.26 58.519 170.286 56.8728 166.142 56.8728ZM241.142 313.123C236.998 313.123 233.023 314.769 230.093 317.699C227.163 320.63 225.517 324.604 225.517 328.748C225.517 332.892 227.163 336.866 230.093 339.796C233.023 342.727 236.998 344.373 241.142 344.373C245.286 344.373 249.26 342.727 252.19 339.796C255.12 336.866 256.767 332.892 256.767 328.748C256.767 324.604 255.12 320.63 252.19 317.699C249.26 314.769 245.286 313.123 241.142 313.123Z" fill="#8D6C9E"/>
<path d="M25.5166 200.623C25.5166 251.529 49.3791 269.373 74.0416 269.373H113.41C113.41 252.116 99.4166 238.123 82.1604 238.123H74.0416C61.3041 238.123 56.7666 218.748 56.7666 200.623C56.7666 182.498 61.3041 163.123 73.9791 163.123L175.748 163.316C175.767 163.316 175.792 163.316 175.81 163.316C193.042 163.316 207.029 149.366 207.06 132.129C207.06 132.041 207.035 131.96 207.035 131.873H74.0416C49.3791 131.873 25.5166 149.716 25.5166 200.623Z" fill="#ACE3FF"/>
<path d="M375.81 200.623C375.81 149.716 351.947 131.873 327.285 131.873H287.916C287.916 149.129 301.91 163.123 319.166 163.123H327.285C340.022 163.123 344.56 182.498 344.56 200.623C344.56 218.748 340.022 238.123 327.347 238.123L225.579 237.929C225.56 237.929 225.535 237.929 225.516 237.929C208.285 237.929 194.297 251.879 194.266 269.116C194.266 269.204 194.291 269.285 194.291 269.373H327.285C351.947 269.373 375.81 251.529 375.81 200.623Z" fill="#EFC88E"/>
<path d="M125.517 275.622H74.0416C61.1916 275.622 19.2666 270.216 19.2666 200.622C19.2666 131.028 61.1916 125.622 74.0416 125.622H194.267V113.122H113.017V74.1469C113.017 55.1969 131.304 19.3719 200.517 19.3719C269.592 19.3719 288.017 53.8032 288.017 74.1469V168.809C288.017 189.441 269.804 206.872 248.248 206.872H152.792C138.26 206.872 125.517 218.822 125.517 232.441V275.622ZM74.0416 138.122C47.1729 138.122 31.7666 160.903 31.7666 200.622C31.7666 240.341 47.1729 263.122 74.0416 263.122H113.017V232.441C113.017 211.803 131.229 194.372 152.792 194.372H248.248C262.773 194.372 275.517 182.422 275.517 168.803V74.1469C275.517 58.4407 259.723 31.8719 200.517 31.8719C141.192 31.8719 125.517 59.5219 125.517 74.1469V100.622H206.767V138.122H74.0416Z" fill="#8D6C9F"/>
<path d="M200.517 381.873C131.304 381.873 113.017 346.048 113.017 327.098V232.442C113.017 211.804 131.229 194.373 152.792 194.373H248.248C262.773 194.373 275.517 182.423 275.517 168.804V125.623H326.992C339.842 125.623 381.767 131.029 381.767 200.623C381.767 270.217 339.842 275.623 326.992 275.623H206.767V288.123H288.017V327.098C288.017 346.048 269.729 381.873 200.517 381.873ZM152.792 206.873C138.26 206.873 125.517 218.823 125.517 232.442V327.104C125.517 341.723 141.192 369.373 200.517 369.373C259.842 369.373 275.517 341.723 275.517 327.098V300.623H194.267V263.123H326.992C353.86 263.123 369.267 240.342 369.267 200.623C369.267 160.904 353.86 138.123 326.992 138.123H288.017V168.804C288.017 189.442 269.804 206.873 248.248 206.873H152.792Z" fill="#8D6C9E"/>
<path d="M235.842 250.622C232.386 250.622 229.592 247.822 229.592 244.372V231.872C229.592 228.422 232.386 225.622 235.842 225.622C239.298 225.622 242.092 228.422 242.092 231.872V244.372C242.092 247.822 239.298 250.622 235.842 250.622ZM264.379 250.622C260.923 250.622 258.129 247.822 258.129 244.372V231.872C258.129 228.422 260.923 225.622 264.379 225.622C267.836 225.622 270.629 228.422 270.629 231.872V244.372C270.629 247.822 267.836 250.622 264.379 250.622ZM292.904 250.622C289.448 250.622 286.654 247.822 286.654 244.372V231.872C286.654 228.422 289.448 225.622 292.904 225.622C296.361 225.622 299.154 228.422 299.154 231.872V244.372C299.154 247.822 296.361 250.622 292.904 250.622ZM321.442 250.622C317.986 250.622 315.192 247.822 315.192 244.372V231.872C315.192 228.422 317.986 225.622 321.442 225.622C324.898 225.622 327.692 228.422 327.692 231.872V244.372C327.692 247.822 324.892 250.622 321.442 250.622Z" fill="#8D6C9F"/>
<path d="M98.3418 176.141C94.8918 176.141 92.0918 173.341 92.0918 169.891V157.391C92.0918 153.941 94.8918 151.141 98.3418 151.141C101.792 151.141 104.592 153.941 104.592 157.391V169.891C104.592 173.347 101.798 176.141 98.3418 176.141ZM126.873 176.141C123.423 176.141 120.623 173.341 120.623 169.891V157.391C120.623 153.941 123.423 151.141 126.873 151.141C130.323 151.141 133.123 153.941 133.123 157.391V169.891C133.123 173.347 130.329 176.141 126.873 176.141ZM155.411 176.141C151.961 176.141 149.161 173.341 149.161 169.891V157.391C149.161 153.941 151.961 151.141 155.411 151.141C158.861 151.141 161.661 153.941 161.661 157.391V169.891C161.661 173.347 158.861 176.141 155.411 176.141ZM183.942 176.141C180.492 176.141 177.692 173.341 177.692 169.891V157.391C177.692 153.941 180.492 151.141 183.942 151.141C187.392 151.141 190.192 153.941 190.192 157.391V169.891C190.192 173.347 187.392 176.141 183.942 176.141Z" fill="#8D6C9F"/>
</svg>
