<svg width="400" height="401" viewBox="0 0 400 401" fill="none" xmlns="http://www.w3.org/2000/svg">
<path d="M200 244.315C220.711 244.315 237.5 227.526 237.5 206.815C237.5 186.104 220.711 169.315 200 169.315C179.289 169.315 162.5 186.104 162.5 206.815C162.5 227.526 179.289 244.315 200 244.315Z" fill="#ED7899"/>
<path d="M200 250.566C175.882 250.566 156.25 230.934 156.25 206.816C156.25 182.697 175.882 163.066 200 163.066C224.119 163.066 243.75 182.697 243.75 206.816C243.75 230.934 224.119 250.566 200 250.566ZM200 175.566C182.769 175.566 168.75 189.584 168.75 206.816C168.75 224.047 182.769 238.066 200 238.066C217.232 238.066 231.25 224.047 231.25 206.816C231.25 189.584 217.232 175.566 200 175.566Z" fill="#8D6C9F"/>
<path d="M200 288.065C94.862 288.065 12.4995 252.377 12.4995 206.815C12.4995 161.252 94.862 125.565 200 125.565C305.137 125.565 387.5 161.252 387.5 206.815C387.5 252.377 305.137 288.065 200 288.065ZM200 138.065C105.137 138.065 24.9995 169.546 24.9995 206.815C24.9995 244.084 105.137 275.565 200 275.565C294.862 275.565 375 244.084 375 206.815C375 169.546 294.862 138.065 200 138.065Z" fill="#8D6C9F"/>
<path d="M126.975 374.484C119.338 374.484 112.381 372.734 106.25 369.19C86.5689 357.827 78.5939 329.871 83.7939 290.465C88.7502 252.94 105.025 208.809 129.631 166.184C154.244 123.565 184.331 87.3962 214.35 64.34C245.881 40.14 274.081 33.0775 293.75 44.44C313.431 55.8025 321.406 83.7587 316.206 123.165C311.25 160.684 294.969 204.821 270.369 247.44C245.756 290.059 215.669 326.227 185.65 349.284C163.95 365.94 143.831 374.484 126.975 374.484ZM273.025 51.6837C259.063 51.6837 241.281 59.4275 221.963 74.265C193.213 96.34 164.275 131.202 140.463 172.44C116.656 213.677 100.938 256.165 96.1877 292.102C91.7564 325.671 97.7064 349.815 112.5 358.365C127.294 366.915 151.169 359.99 178.038 339.365C206.788 317.29 235.725 282.427 259.538 241.19C283.344 199.952 299.063 157.465 303.813 121.527C308.244 87.9587 302.294 63.815 287.5 55.265C283.35 52.865 278.475 51.6837 273.025 51.6837Z" fill="#8D6C9F"/>
<path d="M273.025 374.483C256.175 374.483 236.05 365.94 214.35 349.283C184.331 326.233 154.244 290.058 129.631 247.44C105.025 204.821 88.7502 160.683 83.7939 123.158C78.5939 83.7583 86.5689 55.8021 106.25 44.4396C125.938 33.0896 154.131 40.1521 185.65 64.3521C215.669 87.4021 245.756 123.577 270.369 166.196C294.975 208.815 311.25 252.952 316.206 290.477C321.406 329.871 313.431 357.827 293.75 369.19C287.619 372.733 280.65 374.483 273.025 374.483ZM126.975 51.6833C121.519 51.6833 116.656 52.8646 112.5 55.2646C97.7064 63.8083 91.7564 87.9521 96.1877 121.527C100.938 157.465 116.656 199.958 140.463 241.19C164.275 282.427 193.213 317.29 221.963 339.365C248.825 359.99 272.706 366.908 287.5 358.365C302.294 349.821 308.244 325.677 303.813 292.102C299.063 256.165 283.344 213.671 259.538 172.44C235.725 131.202 206.788 96.3396 178.038 74.2646C158.725 59.4333 140.944 51.6833 126.975 51.6833Z" fill="#8D6C9F"/>
<path d="M65.3939 294.14C65.1189 294.14 64.8439 294.122 64.5627 294.084L52.1752 292.434C48.7502 291.978 46.3439 288.84 46.8064 285.415C47.2564 281.99 50.3814 279.584 53.8252 280.047L66.2127 281.697C69.6377 282.153 72.0439 285.29 71.5814 288.715C71.1689 291.853 68.4814 294.14 65.3939 294.14Z" fill="#8D6C9F"/>
<path d="M51.2125 324.846C47.8625 324.846 45.0875 322.184 44.975 318.803C44.8562 315.353 47.5562 312.465 51.0125 312.353L63.5 311.934C66.9437 311.703 69.8437 314.515 69.9562 317.971C70.075 321.421 67.375 324.309 63.9187 324.421L51.425 324.84C51.3625 324.846 51.2875 324.846 51.2125 324.846Z" fill="#8D6C9F"/>
<path d="M56.3067 357.396C53.6254 357.396 51.1504 355.665 50.3317 352.971C49.3254 349.671 51.1817 346.178 54.4817 345.172L66.4379 341.522C69.7504 340.484 73.2379 342.372 74.2379 345.672C75.2504 348.971 73.3879 352.465 70.0879 353.471L58.1316 357.121C57.5192 357.309 56.9067 357.396 56.3067 357.396Z" fill="#8D6C9F"/>
<path d="M72.1999 387.14C70.4436 387.14 68.6936 386.402 67.4561 384.958C65.2124 382.34 65.5061 378.39 68.1249 376.146L77.6124 368.002C80.2249 365.765 84.1686 366.052 86.4249 368.671C88.6686 371.29 88.3749 375.24 85.7561 377.483L76.2686 385.627C75.0936 386.64 73.6436 387.14 72.1999 387.14Z" fill="#8D6C9F"/>
<path d="M348.568 117.553C348.443 117.553 348.325 117.547 348.2 117.54L335.725 116.822C332.275 116.628 329.643 113.672 329.85 110.222C330.043 106.778 333.018 104.153 336.45 104.347L348.925 105.065C352.375 105.259 355.006 108.215 354.8 111.665C354.606 114.984 351.85 117.553 348.568 117.553Z" fill="#8D6C9F"/>
<path d="M334.944 86.7961C331.9 86.7961 329.238 84.5773 328.769 81.4711C328.257 78.0586 330.613 74.8711 334.025 74.3586L346.388 72.5023C349.813 72.0523 352.988 74.3523 353.5 77.7586C354.013 81.1711 351.657 84.3586 348.244 84.8711L335.882 86.7273C335.563 86.7711 335.25 86.7961 334.944 86.7961Z" fill="#8D6C9F"/>
<path d="M326.344 58.9151C324.094 58.9151 321.919 57.7026 320.8 55.5651C319.194 52.5151 320.382 48.7338 323.438 47.1276L334.507 41.3213C337.557 39.7213 341.338 40.8963 342.944 43.9588C344.55 47.0088 343.363 50.7901 340.307 52.3964L329.238 58.2026C328.313 58.6839 327.319 58.9151 326.344 58.9151Z" fill="#8D6C9F"/>
<path d="M307.912 37.5596C306.662 37.5596 305.4 37.1846 304.3 36.4034C301.487 34.4034 300.825 30.5034 302.825 27.6846L310.062 17.4909C312.062 14.6784 315.956 14.0096 318.781 16.0159C321.594 18.0159 322.256 21.9159 320.256 24.7346L313.019 34.9284C311.794 36.6409 309.869 37.5596 307.912 37.5596Z" fill="#8D6C9F"/>
</svg>
