<svg width="401" height="401" viewBox="0 0 401 401" fill="none" xmlns="http://www.w3.org/2000/svg">
<path d="M332.257 217.246C319.44 217.312 308.34 220.387 299.04 224.979C295.64 218.187 292.19 212.212 291.615 207.771C290.94 202.587 290.157 199.487 290.973 193.312C291.79 187.137 295.365 178.387 295.315 177.729C295.265 177.071 294.515 173.929 287.123 173.871C279.732 173.821 273.407 175.296 272.665 177.246C271.923 179.196 270.498 183.587 269.615 188.171C268.323 194.871 254.857 218.779 247.215 231.279C244.715 226.396 242.59 222.096 242.148 218.696C241.473 213.512 240.69 210.412 241.507 204.237C242.323 198.062 245.898 189.312 245.848 188.654C245.798 187.996 245.048 184.854 237.657 184.796C230.265 184.746 223.94 186.221 223.198 188.171C222.457 190.121 221.657 194.679 220.148 199.096C218.632 203.504 200.74 243.379 196.048 253.721C193.657 258.987 191.582 263.221 190.115 266.104C190.107 266.096 190.107 266.087 190.107 266.087C190.107 266.087 190.015 266.279 189.865 266.604C188.607 269.062 187.865 270.421 187.865 270.421C187.865 270.421 187.873 270.437 187.89 270.471C186.89 272.279 185.823 273.954 185.298 273.954C184.932 273.954 184.19 269.146 185.457 262.546C188.123 248.712 194.515 227.146 194.457 226.396C194.423 226.012 195.648 222.254 190.282 220.287C185.065 218.379 183.207 221.562 182.732 221.571C182.273 221.579 181.932 222.696 181.932 222.696C181.932 222.696 187.74 198.437 170.848 198.437C160.282 198.437 145.648 209.996 138.44 220.471C133.89 222.954 124.148 228.271 113.823 233.946C109.857 236.129 105.807 238.354 101.965 240.471C101.707 240.179 101.44 239.896 101.173 239.604C80.6817 217.746 42.815 202.287 44.415 172.896C44.9984 162.212 48.715 134.079 117.19 99.9623C173.282 72.0123 218.19 79.7039 225.948 96.7456C237.032 121.104 201.948 166.362 143.698 172.896C121.507 175.387 109.815 166.779 106.907 163.579C103.848 160.204 103.39 160.054 102.248 160.687C100.39 161.721 101.565 164.696 102.248 166.471C103.99 170.996 111.123 179.021 123.29 183.021C133.998 186.537 160.057 188.462 191.565 176.271C226.865 162.621 254.423 124.637 246.323 92.8956C238.09 60.6123 184.557 49.9956 133.89 67.9956C103.698 78.7123 71.0567 95.5289 47.5817 117.479C19.6734 143.579 15.2234 166.304 17.0567 175.796C23.5734 209.529 70.065 231.496 88.6817 247.771C87.765 248.279 86.8983 248.754 86.115 249.187C76.7817 253.804 41.34 272.354 32.4734 291.946C22.415 314.171 34.0734 330.121 41.79 332.271C65.6983 338.921 90.2317 326.954 103.423 307.287C116.607 287.629 114.998 262.021 108.948 250.337C108.873 250.196 108.79 250.054 108.715 249.904C111.123 248.479 113.582 247.029 116.015 245.596C120.765 242.804 125.432 240.204 129.473 238.004C127.207 244.204 125.548 251.646 124.69 262.387C123.673 275.004 128.848 291.312 135.615 297.729C138.598 300.554 142.182 300.621 144.448 300.621C152.323 300.621 155.915 294.071 159.873 286.321C164.723 276.821 169.032 265.754 169.032 265.754C169.032 265.754 163.632 295.637 178.348 295.637C183.715 295.637 189.107 288.679 191.515 285.137C191.523 285.179 191.523 285.196 191.523 285.196C191.523 285.196 191.665 284.962 191.94 284.504C192.498 283.654 192.815 283.112 192.815 283.112C192.815 283.112 192.823 283.054 192.84 282.954C194.998 279.212 199.782 270.679 206.948 256.604C216.215 238.421 225.098 215.637 225.098 215.637C225.098 215.637 225.923 221.204 228.632 230.421C230.223 235.837 233.607 241.829 236.282 247.579C234.132 250.562 232.815 252.271 232.815 252.271C232.815 252.271 232.823 252.304 232.848 252.362C231.132 254.646 229.207 257.104 227.19 259.504C219.873 268.212 211.165 278.162 209.998 281.029C208.623 284.412 208.948 286.896 211.607 288.904C213.548 290.362 216.998 290.596 220.607 290.354C227.182 289.912 231.798 288.279 234.082 287.287C237.64 286.029 241.782 284.054 245.665 281.196C252.84 275.921 257.165 268.379 256.748 258.379C256.515 252.871 254.765 247.412 252.54 242.262C253.19 241.329 253.84 240.379 254.498 239.429C265.807 222.896 274.582 204.729 274.582 204.729C274.582 204.729 275.407 210.296 278.115 219.512C279.482 224.171 282.19 229.262 284.623 234.246C273.99 242.887 267.398 252.929 265.107 259.512C260.873 271.696 264.19 277.212 270.407 278.471C273.223 279.037 277.207 277.746 280.198 276.479C283.923 275.246 288.398 273.187 292.582 270.112C299.757 264.837 306.657 257.454 306.24 247.462C306.048 242.912 304.815 238.396 303.14 234.062C312.157 230.304 323.823 228.221 338.69 229.954C370.582 233.679 376.832 253.587 375.64 261.921C374.44 270.254 367.757 274.837 365.515 276.221C363.282 277.604 362.598 278.087 362.782 279.112C363.057 280.604 364.09 280.554 365.998 280.229C368.623 279.787 382.74 273.454 383.348 258.071C384.107 238.521 365.398 217.071 332.257 217.246ZM86.4483 300.112C75.8817 311.637 61.1317 315.987 54.7983 312.321C47.965 308.362 50.6734 291.396 63.6317 279.162C71.5317 271.712 81.7317 264.846 88.4983 260.621C90.04 259.696 92.2983 258.337 95.0483 256.687C95.5067 256.429 95.765 256.287 95.765 256.287L95.7567 256.271C96.29 255.954 96.8317 255.629 97.39 255.287C102.115 272.696 97.54 288.021 86.4483 300.112ZM163.407 247.804C159.732 256.771 152.032 279.721 147.34 278.487C143.315 277.429 140.865 259.987 146.54 242.821C149.39 234.179 155.49 223.854 159.073 219.846C164.84 213.396 171.19 211.287 172.732 213.904C174.69 217.237 165.715 242.179 163.407 247.804ZM226.982 278.137C225.423 278.954 223.99 279.462 223.332 279.071C222.84 278.779 223.973 277.704 223.973 277.704C223.973 277.704 231.923 269.146 235.057 265.254C236.882 262.987 238.99 260.296 241.29 257.296C241.307 257.596 241.315 257.896 241.315 258.187C241.298 268.437 231.398 275.354 226.982 278.137ZM275.957 266.971C274.79 266.146 274.99 263.471 278.815 255.129C280.315 251.854 283.748 246.346 289.698 241.079C290.39 243.246 290.807 245.321 290.798 247.254C290.723 260.154 281.523 264.971 275.957 266.971Z" fill="#F06292" stroke="#7D5D8E" stroke-width="5"/>
</svg>
