<svg width="96" height="96" viewBox="0 0 96 96" fill="none" xmlns="http://www.w3.org/2000/svg">
<path d="M52 34H36C28.268 34 22 27.732 22 20C22 12.268 28.268 6 36 6H52V34Z" fill="#E64A19"/>
<path d="M50 62H36C28.268 62 22 55.732 22 48C22 40.268 28.268 34 36 34H50V62Z" fill="#7C4DFF"/>
<path d="M36 90C28.268 90 22 83.732 22 76C22 68.268 28.268 62 36 62H50V76C50 83.732 43.732 90 36 90Z" fill="#66BB6A"/>
<path d="M64 34H50V6H64C71.732 6 78 12.268 78 20C78 27.732 71.732 34 64 34Z" fill="#FF7043"/>
<path d="M64 62C71.732 62 78 55.732 78 48C78 40.268 71.732 34 64 34C56.268 34 50 40.268 50 48C50 55.732 56.268 62 64 62Z" fill="#29B6F6"/>
</svg>
