<svg width="96" height="96" viewBox="0 0 96 96" fill="none" xmlns="http://www.w3.org/2000/svg">
<path d="M84.4 44.2L51.8 11.6C50.8 10.6 49.4 10 48 10C46.6 10 45.2 10.6 44.2 11.6L37.2 18.6L45.4 26.8C46.2 26.4 47 26.2 48 26.2C51.4 26.2 54 28.8 54 32.2C54 33.2 53.8 34 53.4 34.8L61.4 42.8C62.2 42.4 63 42.2 64 42.2C67.4 42.2 70 44.8 70 48.2C70 51.6 67.4 54.2 64 54.2C60.6 54.2 58 51.6 58 48.2C58 47.2 58.2 46.4 58.6 45.6L50.6 37.6C50.4 37.6 50.2 37.8 50 37.8V58.6C52.4 59.4 54 61.6 54 64.2C54 67.6 51.4 70.2 48 70.2C44.6 70.2 42 67.6 42 64.2C42 61.6 43.6 59.4 46 58.6V37.6C43.6 36.8 42 34.6 42 32C42 31 42.2 30.2 42.6 29.4L34.4 21.2L11.6 44.2C10.6 45.2 10 46.6 10 48C10 49.4 10.6 50.8 11.6 51.8L44.2 84.4C45.2 85.4 46.6 86 48 86C49.4 86 50.8 85.4 51.8 84.4L84.4 51.8C85.4 50.8 86 49.4 86 48C86 46.6 85.4 45.2 84.4 44.2Z" fill="#F4511E"/>
</svg>
