<svg width="96" height="117" viewBox="0 0 96 117" fill="none" xmlns="http://www.w3.org/2000/svg">
<g clip-path="url(#clip0_413_939)">
<path d="M92.3787 91.544C92.377 91.5431 92.3761 91.5414 92.3761 91.5397C91.555 90.6131 91.1641 88.8954 90.7433 87.0654C90.3241 85.2363 89.8544 83.264 88.3527 81.986C88.3501 81.9825 88.3458 81.9808 88.3433 81.9774C88.0458 81.7177 87.7398 81.4991 87.433 81.3157C87.1244 81.1331 86.8124 80.9848 86.4995 80.8665C88.5867 74.6771 87.769 68.5125 85.6613 62.9437C83.0761 56.1071 78.5615 50.1508 75.1141 46.0768C71.2544 41.2083 67.4804 36.5874 67.555 29.7611C67.6698 19.3443 68.7001 0.0259758 50.3684 0.000261509C49.6236 -0.000595634 48.8453 0.0302615 48.0353 0.0954044C27.5496 1.74369 32.9838 23.3874 32.6796 30.6337C32.3041 35.9343 31.2301 40.1111 27.5847 45.2917C23.3033 50.3831 17.2724 58.6254 14.4173 67.2063C13.0698 71.2545 12.4287 75.3817 13.0201 79.2885C12.835 79.4548 12.6593 79.6297 12.4896 79.808C11.233 81.1511 10.3038 82.7771 9.26926 83.8717C8.30155 84.8377 6.92498 85.2037 5.40955 85.7463C3.89498 86.2897 2.23212 87.0911 1.22326 89.0274C1.22326 89.0274 1.22326 89.0291 1.22155 89.0291C1.21984 89.0317 1.21898 89.036 1.21641 89.0385C0.74155 89.9248 0.587264 90.8814 0.587264 91.8508C0.587264 92.7483 0.719264 93.6568 0.853836 94.532C1.13241 96.3525 1.41526 98.0745 1.03984 99.2411C-0.157593 102.519 -0.312736 104.784 0.53155 106.429C1.37841 108.077 3.11669 108.803 5.08212 109.215C9.01298 110.034 14.3367 109.831 18.5307 112.055L18.8924 111.375L18.535 112.056C23.0264 114.405 27.5796 115.239 31.2113 114.409C33.8461 113.808 35.9838 112.24 37.0818 109.826C39.9233 109.812 43.0407 108.609 48.0353 108.334C51.4236 108.061 55.6561 109.538 60.5247 109.267C60.6515 109.795 60.8358 110.303 61.0878 110.786C61.0904 110.79 61.093 110.795 61.0955 110.8C62.983 114.574 66.4887 116.3 70.2267 116.005C73.9681 115.71 77.9461 113.504 81.1638 109.678L80.5733 109.182L81.1673 109.672C84.2333 105.954 89.3204 104.414 92.6958 102.379C94.3818 101.362 95.7498 100.088 95.857 98.2374C95.9615 96.3885 94.8755 94.316 92.3787 91.544Z" fill="#202020"/>
<path d="M94.317 98.1494C94.2518 99.2911 93.4255 100.14 91.8981 101.059C88.8467 102.9 83.4373 104.502 79.9838 108.685C76.983 112.255 73.3255 114.216 70.1044 114.47C66.8841 114.724 64.1053 113.388 62.4655 110.1L62.463 110.093L62.4595 110.084C61.4421 108.15 61.8655 105.099 62.7218 101.881C63.5781 98.662 64.809 95.356 64.9735 92.6706V92.6628C65.1467 89.2214 65.3404 86.2154 65.9181 83.896C66.4967 81.5757 67.407 80.0063 69.0201 79.1234C69.0955 79.0831 69.1701 79.0437 69.2447 79.0068C69.4264 81.9871 70.9033 85.0283 73.5107 85.6848C76.365 86.4374 80.4784 83.9886 82.2158 81.9914C82.563 81.9777 82.9015 81.9597 83.2298 81.952C84.7547 81.9151 86.031 82.0034 87.3381 83.1451L87.3424 83.1486L87.3467 83.152C88.3504 84.0023 88.8278 85.6094 89.2418 87.4086C89.6558 89.2094 89.985 91.1688 91.2278 92.5668L91.2287 92.5677L91.2295 92.5711C93.6167 95.218 94.3838 97.0068 94.317 98.1494Z" fill="#FFCD00"/>
<path d="M36.3192 106.588L36.3184 106.595V106.606C36.0424 110.222 34.0024 112.192 30.8695 112.907C27.7392 113.623 23.4929 112.91 19.2535 110.693C19.2518 110.693 19.2509 110.692 19.2492 110.692C14.5581 108.207 8.97807 108.455 5.39778 107.706C3.60807 107.333 2.43893 106.77 1.90321 105.726C1.36836 104.681 1.3555 102.858 2.49464 99.7511L2.49978 99.7374L2.50407 99.7236C3.06807 97.9854 2.65064 96.0834 2.37721 94.2979C2.10378 92.5142 1.97007 90.8891 2.5795 89.7585L2.5855 89.7474C3.3655 88.2431 4.51064 87.7048 5.93007 87.1965C7.35207 86.6865 9.03635 86.2862 10.3658 84.9525L10.3744 84.9448L10.3812 84.9388C11.6104 83.6411 12.5344 82.0142 13.6152 80.8605C14.5272 79.8859 15.4401 79.2405 16.8158 79.2311C16.8321 79.2328 16.8466 79.2328 16.8629 79.2311C17.1038 79.2328 17.3592 79.2534 17.6301 79.2954C19.4566 79.5714 21.0484 80.8476 22.5826 82.9279L27.0115 90.9996L27.0132 91.0039L27.0158 91.0065C28.1935 93.4674 30.6826 96.1742 32.7912 98.9351C34.9006 101.695 36.5318 104.466 36.3192 106.588Z" fill="#FFCD00"/>
<path d="M58.4066 31.3414C58.0509 30.6445 57.324 29.982 56.088 29.4745L56.0854 29.4737L56.0812 29.472C53.5097 28.3705 52.3937 28.2925 50.9589 27.3591C48.6223 25.8574 46.692 25.3311 45.0874 25.338C44.2474 25.3405 43.4966 25.4897 42.8246 25.722C40.8703 26.3948 39.5726 27.7971 38.76 28.5668L38.7583 28.5685C38.7583 28.5694 38.7574 28.5694 38.7574 28.5711C38.5972 28.7228 38.3914 28.8608 37.8934 29.226C37.392 29.592 36.6394 30.144 35.5577 30.9557C34.596 31.6765 34.2832 32.616 34.6166 33.7157C34.9474 34.8154 36.0086 36.084 37.9483 37.1811L37.9509 37.1837L37.9551 37.1854C39.1586 37.8925 39.9814 38.8465 40.9251 39.6051C41.3974 39.984 41.8937 40.3225 42.492 40.578C43.0894 40.8334 43.788 41.0065 44.6614 41.058C46.7117 41.1771 48.222 40.5617 49.554 39.7988C50.8894 39.0368 52.02 38.1051 53.3177 37.6842L53.3203 37.6825L53.3229 37.6817C55.9826 36.8511 57.8794 35.178 58.4726 33.588C58.77 32.7925 58.7614 32.0382 58.4066 31.3414Z" fill="#FFCD00"/>
<path d="M51.659 35.267C49.5436 36.3702 47.0716 37.7073 44.4427 37.7073C41.8139 37.7073 39.7379 36.4927 38.2448 35.309C37.4973 34.7176 36.8913 34.1296 36.4345 33.7019C35.6416 33.0762 35.7359 32.1976 36.0616 32.2233C36.6085 32.2919 36.6908 33.011 37.0345 33.3325C37.4999 33.7679 38.0836 34.3319 38.789 34.8925C40.2016 36.011 42.0847 37.0996 44.4427 37.0996C46.7965 37.0996 49.5436 35.7179 51.221 34.7776C52.1708 34.2445 53.3802 33.2887 54.3667 32.5645C55.1219 32.0107 55.0945 31.343 55.7176 31.4159C56.3407 31.4887 55.8796 32.1547 55.007 32.9167C54.1336 33.6779 52.7682 34.6885 51.659 35.267Z" fill="#202020"/>
<path d="M84.0568 80.4153C83.7628 80.4042 83.474 80.4059 83.192 80.4128C83.1663 80.4136 83.1414 80.4136 83.114 80.4136C83.8408 78.1199 82.2337 76.4271 77.9505 74.4899C73.5097 72.5373 69.9706 72.7302 69.3731 76.6936C69.3354 76.9011 69.3046 77.1128 69.2814 77.3271C68.9488 77.4436 68.6154 77.5893 68.2803 77.7719C66.1957 78.9136 65.0566 80.9836 64.4231 83.5242C63.7914 86.0613 63.6088 89.1282 63.4357 92.5765V92.5791C63.3286 94.3122 62.6145 96.6573 61.8928 99.1413C54.6174 104.331 44.5211 106.58 35.9471 100.728C35.3668 99.8091 34.7 98.8988 34.0143 98.0005C33.5763 97.4271 33.1254 96.8579 32.6797 96.2948C33.5583 96.2965 34.3066 96.1516 34.9117 95.8782C35.6634 95.5362 36.1906 94.9893 36.4528 94.2865C36.9757 92.8808 36.4503 90.8973 34.7771 88.6319C33.104 86.3673 30.2703 83.8122 26.1063 81.2579V81.2571C23.0463 79.3533 21.3371 77.0211 20.5357 74.4891C19.7343 71.9553 19.8457 69.2159 20.4645 66.5125C21.6491 61.3216 24.6928 56.2731 26.6351 53.1051C27.1571 52.7211 26.822 53.8199 24.668 57.8185C22.7394 61.4733 19.1317 69.9085 24.0706 76.4939C24.2026 71.8079 25.322 67.0293 27.2008 62.5585C29.9368 56.3562 35.6608 45.5982 36.1151 37.0242C36.3508 37.1948 37.1557 37.7382 37.514 37.9431C37.5148 37.9439 37.5148 37.9439 37.5165 37.9439C38.5665 38.5619 39.3551 39.4662 40.376 40.2873C41.4003 41.1093 42.6783 41.8199 44.6103 41.9322C44.7954 41.9425 44.9771 41.9485 45.1537 41.9485C47.1457 41.9485 48.698 41.2988 49.9914 40.5591C51.3971 39.7551 52.52 38.8653 53.5846 38.5191C53.5854 38.5173 53.5871 38.5173 53.588 38.5173C55.838 37.8145 57.6251 36.5699 58.6417 35.1196C60.3894 42.0076 64.4531 51.9573 67.0657 56.8122C68.4543 59.3871 71.2168 64.8608 72.41 71.4548C73.166 71.4316 74 71.5413 74.8905 71.7702C78.0114 63.6796 72.2445 54.9668 69.6071 52.5402C68.5425 51.5065 68.4911 51.0436 69.02 51.0651C71.8794 53.5962 75.6363 58.6833 77.0026 64.4271C77.6257 67.0465 77.7585 69.8005 77.0908 72.5185C77.4157 72.6531 77.7491 72.8005 78.086 72.9608C83.0951 75.3993 84.9465 77.5208 84.0568 80.4153Z" fill="white"/>
<path d="M58.6418 23.4063C58.6529 24.7709 58.4172 25.9332 57.8995 27.1194C57.6046 27.7957 57.2652 28.364 56.8572 28.856C56.7192 28.79 56.5761 28.7266 56.4278 28.6657C55.9118 28.4454 55.4566 28.2637 55.0478 28.1094C54.6389 27.9552 54.3201 27.8506 53.9918 27.7366C54.2301 27.4486 54.6989 27.1092 54.8738 26.6832C55.1386 26.0403 55.2681 25.4129 55.2929 24.6646C55.2929 24.6346 55.3024 24.6089 55.3024 24.5737C55.3178 23.8572 55.2226 23.2443 55.0135 22.6169C54.7941 21.9577 54.5155 21.4846 54.1118 21.0903C53.7081 20.6969 53.3044 20.5186 52.8201 20.5023C52.7969 20.5006 52.7755 20.5006 52.7524 20.5006C52.2981 20.5023 51.9029 20.6592 51.4949 21.0003C51.0655 21.3586 50.7475 21.8172 50.4826 22.4557C50.2186 23.0943 50.0892 23.7269 50.0635 24.4794C50.0592 24.5086 50.0592 24.5343 50.0592 24.5643C50.0498 24.9783 50.0772 25.3572 50.1406 25.7249C49.2098 25.2612 48.0192 24.9226 47.1964 24.7263C47.1492 24.3706 47.1226 24.0046 47.1141 23.6197V23.516C47.0995 22.1549 47.3224 20.9874 47.8461 19.8029C48.3698 18.6166 49.0169 17.7637 49.9289 17.0703C50.8418 16.3777 51.7392 16.0597 52.8012 16.0486H52.8509C53.8898 16.0486 54.7786 16.3546 55.6915 17.0163C56.6181 17.69 57.2866 18.5309 57.8249 19.7077C58.3529 20.8554 58.6066 21.9766 58.6324 23.306C58.6324 23.3412 58.6324 23.3712 58.6418 23.4063Z" fill="white"/>
<path d="M42.9394 24.7659C42.8032 24.8053 42.6703 24.8465 42.5392 24.8919C41.7952 25.149 41.2046 25.4319 40.6337 25.8099C40.6894 25.4148 40.6972 25.0145 40.6534 24.5662C40.65 24.5422 40.65 24.5216 40.65 24.4976C40.59 23.9036 40.464 23.4056 40.2549 22.9025C40.0312 22.3796 39.7809 22.0102 39.4526 21.7256C39.1551 21.4685 38.8732 21.3493 38.5629 21.3528C38.5312 21.3528 38.4986 21.3536 38.4669 21.3562C38.118 21.3862 37.8283 21.5568 37.5531 21.891C37.2797 22.2236 37.1006 22.6376 36.9703 23.187C36.8409 23.7348 36.8066 24.273 36.8606 24.891C36.8606 24.9159 36.8666 24.9356 36.8666 24.9605C36.9257 25.5596 37.0466 26.0576 37.26 26.5608C37.4786 27.0785 37.7331 27.4479 38.0623 27.7316C38.118 27.7796 38.172 27.8225 38.2251 27.8602C37.8849 28.1242 37.656 28.311 37.374 28.5168C37.194 28.6479 36.9806 28.8048 36.732 28.989C36.1894 28.4799 35.766 27.8422 35.3957 26.9988C34.9569 26.0036 34.7229 25.0068 34.6526 23.8299V23.8205C34.5874 22.6436 34.7031 21.6313 35.0263 20.5848C35.3503 19.5373 35.7831 18.7805 36.4123 18.1582C37.0406 17.5342 37.6731 17.2205 38.4369 17.181C38.496 17.1785 38.5543 17.1768 38.6126 17.1768C39.3034 17.1785 39.9206 17.4082 40.5592 17.9182C41.2509 18.4719 41.7746 19.179 42.2134 20.1759C42.6532 21.1728 42.8863 22.1696 42.9514 23.3465V23.3559C42.9832 23.8496 42.9789 24.315 42.9394 24.7659Z" fill="white"/>
<path d="M46.4104 27.5807C46.4978 27.8619 46.9504 27.8147 47.2118 27.9502C47.4415 28.0684 47.6258 28.3273 47.8838 28.3342C48.1298 28.3419 48.5138 28.2493 48.5455 28.005C48.5884 27.6819 48.1169 27.477 47.8135 27.3587C47.4235 27.207 46.9229 27.1299 46.5569 27.333C46.4729 27.3802 46.3812 27.489 46.4104 27.5807Z" fill="#202020"/>
<path d="M43.7368 27.5807C43.6493 27.8619 43.1968 27.8147 42.9345 27.9502C42.7056 28.0684 42.5213 28.3273 42.2625 28.3342C42.0165 28.3419 41.6333 28.2493 41.6016 28.005C41.5587 27.6819 42.0302 27.477 42.3336 27.3587C42.7236 27.207 43.2233 27.1299 43.5902 27.333C43.6733 27.3802 43.765 27.489 43.7368 27.5807Z" fill="#202020"/>
</g>
<defs>
<clipPath id="clip0_413_939">
<rect width="96" height="116.571" fill="white"/>
</clipPath>
</defs>
</svg>
