<svg width="96" height="96" viewBox="0 0 96 96" fill="none" xmlns="http://www.w3.org/2000/svg">
<path d="M48.094 10C44.984 10.01 42.828 10.284 40.222 10.734C32.526 12.074 31.124 14.888 31.124 20.074V28H49.124V32H30.44H21.74C16.468 32 11.854 34.484 10.392 40.438C8.73999 47.272 8.66599 51.552 10.392 58.688C11.702 64.01 14.588 68 19.862 68H27.126V57.792C27.126 51.86 32.498 46 38.654 46H53.126C58.172 46 63.126 42.276 63.126 37.246V20.074C63.126 15.196 59.608 11.548 54.69 10.73C54.812 10.718 51.178 9.98802 48.094 10ZM38.126 18C39.768 18 41.126 19.354 41.126 21.004C41.126 22.67 39.768 24 38.126 24C36.452 24 35.126 22.672 35.126 21.004C35.126 19.36 36.452 18 38.126 18Z" fill="#0277BD"/>
<path d="M46.156 86C49.266 85.99 51.422 85.716 54.028 85.266C61.724 83.926 63.126 81.112 63.126 75.926V68H45.126V64H63.812H72.512C77.784 64 82.398 61.516 83.86 55.562C85.512 48.728 85.586 44.448 83.86 37.312C82.548 31.99 79.662 28 74.388 28H67.124V38.208C67.124 44.14 61.752 50 55.596 50H41.124C36.078 50 31.124 53.724 31.124 58.754V75.926C31.124 80.804 34.642 84.452 39.56 85.27C39.438 85.282 43.072 86.012 46.156 86ZM56.126 78C54.484 78 53.126 76.646 53.126 74.996C53.126 73.33 54.484 72 56.126 72C57.8 72 59.126 73.328 59.126 74.996C59.126 76.64 57.798 78 56.126 78Z" fill="#FFC107"/>
</svg>
