<svg width="96" height="96" viewBox="0 0 96 96" fill="none" xmlns="http://www.w3.org/2000/svg">
<path d="M48 68C22.2 68 2 59.2 2 48C2 36.8 22.2 28 48 28C73.8 28 94 36.8 94 48C94 59.2 73.8 68 48 68ZM48 32C22.8 32 6 40.2 6 48C6 55.8 22.8 64 48 64C73.2 64 90 55.8 90 48C90 40.2 73.2 32 48 32Z" fill="#80DEEA"/>
<path d="M30.2 89.2C28.2 89.2 26.6 88.8 25 87.8C15.2 82.2 17.8 60.4 30.6 38C36.6 27.6 44 18.8 51.2 13.2C59 7.20005 66 5.40005 70.8 8.20005C75.8 11 77.6 18 76.4 27.8C75.2 37 71.2 47.8 65.2 58.2C59.2 68.6 51.8 77.4 44.6 83C39.4 87 34.4 89.2 30.2 89.2ZM65.8 10.8C62.6 10.8 58.4 12.6 53.8 16.2C47 21.6 40 30 34.2 40C21.6 61.8 20.4 80.6 27 84.4C30.4 86.4 36 84.6 42.2 79.8C49 74.4 56 66 61.8 56C67.6 46 71.4 35.8 72.6 27.2C73.6 19.2 72.4 13.6 69 11.6C68 11.2 67 10.8 65.8 10.8Z" fill="#80DEEA"/>
<path d="M66 89.2C56 89.2 41.6 77 30.8 58C17.8 35.6 15.2 13.8 25 8.20002C34.8 2.60002 52.4 15.6 65.4 38C71.4 48.4 75.4 59.2 76.6 68.4C78 78.2 76 85 71 88C69.4 88.8 67.8 89.2 66 89.2ZM27 11.6C20.4 15.4 21.6 34.2 34.2 56C46.8 77.8 62.4 88.2 69 84.4C72.4 82.4 73.6 76.8 72.6 68.8C71.4 60.2 67.6 50 61.8 40C49.2 18.2 33.6 7.80002 27 11.6Z" fill="#80DEEA"/>
<path d="M48 56C52.4183 56 56 52.4183 56 48C56 43.5817 52.4183 40 48 40C43.5817 40 40 43.5817 40 48C40 52.4183 43.5817 56 48 56Z" fill="#80DEEA"/>
</svg>
