<svg width="96" height="96" viewBox="0 0 96 96" fill="none" xmlns="http://www.w3.org/2000/svg">
<path fill-rule="evenodd" clip-rule="evenodd" d="M48.084 8.06396C70.13 8.06396 88 25.934 88 47.98C88 70.024 70.13 87.896 48.084 87.896C26.04 87.896 8.168 70.026 8.168 47.98C8.17 25.934 26.04 8.06396 48.084 8.06396Z" fill="#F06292"/>
<path d="M73.122 25.148C71.314 18.058 59.56 15.728 48.436 19.68C41.816 22.032 34.648 25.724 29.494 30.544C23.366 36.276 22.39 41.264 22.792 43.348C24.212 50.702 34.29 55.51 38.432 59.078V59.1C37.21 59.702 28.27 64.226 26.178 68.852C23.97 73.732 26.53 77.234 28.224 77.706C33.474 79.166 38.86 76.54 41.756 72.222C44.55 68.054 44.318 62.674 43.104 59.996C44.778 59.554 46.732 59.356 49.212 59.646C56.214 60.464 57.588 64.836 57.324 66.666C57.062 68.496 55.592 69.502 55.102 69.806C54.61 70.11 54.462 70.216 54.502 70.44C54.562 70.768 54.788 70.756 55.208 70.686C55.784 70.588 58.884 69.198 59.018 65.82C59.186 61.532 55.078 56.736 47.802 56.86C44.806 56.912 42.922 57.196 41.56 57.704C41.46 57.59 41.356 57.476 41.252 57.362C36.754 52.562 28.438 49.168 28.79 42.716C28.918 40.37 29.734 34.194 44.768 26.702C57.084 20.564 66.944 22.254 68.648 25.996C71.082 31.344 63.378 41.282 50.588 42.716C45.714 43.262 43.148 41.374 42.51 40.67C41.838 39.93 41.738 39.896 41.488 40.036C41.08 40.262 41.338 40.916 41.488 41.306C41.87 42.3 43.438 44.062 46.108 44.94C48.458 45.712 54.18 46.134 61.1 43.458C68.848 40.458 74.9 32.118 73.122 25.148ZM40.152 61.276C40.732 63.424 40.668 65.428 40.07 67.242C40.004 67.444 39.93 67.642 39.85 67.84C39.77 68.036 39.684 68.232 39.592 68.424C39.13 69.384 38.508 70.282 37.748 71.112C35.428 73.642 32.188 74.598 30.8 73.792C29.3 72.922 30.052 69.356 32.74 66.512C35.632 63.454 39.794 61.488 39.794 61.488L39.788 61.476C39.908 61.41 40.03 61.344 40.152 61.276Z" fill="#FFE9D6"/>
</svg>
